<?xml version="1.0" encoding="UTF-8" standalone="no"?>
<!-- Created with Inkscape (http://www.inkscape.org/) -->

<svg
   width="15.24mm"
   height="128.5mm"
   viewBox="0 0 15.24 128.5"
   version="1.1"
   id="svg1"
   inkscape:version="1.3.2 (091e20e, 2023-11-25)"
   sodipodi:docname="Phoenix.svg"
   xmlns:inkscape="http://www.inkscape.org/namespaces/inkscape"
   xmlns:sodipodi="http://sodipodi.sourceforge.net/DTD/sodipodi-0.dtd"
   xmlns:xlink="http://www.w3.org/1999/xlink"
   xmlns="http://www.w3.org/2000/svg"
   xmlns:svg="http://www.w3.org/2000/svg">
  <sodipodi:namedview
     id="namedview1"
     pagecolor="#ffffff"
     bordercolor="#cccccc"
     borderopacity="1"
     inkscape:showpageshadow="0"
     inkscape:pageopacity="1"
     inkscape:pagecheckerboard="0"
     inkscape:deskcolor="#d1d1d1"
     inkscape:document-units="mm"
     inkscape:zoom="2.2606244"
     inkscape:cx="-65.468638"
     inkscape:cy="236.66028"
     inkscape:window-width="2560"
     inkscape:window-height="1387"
     inkscape:window-x="0"
     inkscape:window-y="25"
     inkscape:window-maximized="0"
     inkscape:current-layer="layer1" />
  <defs
     id="defs1">
    <linearGradient
       id="linearGradient7"
       inkscape:collect="always">
      <stop
         style="stop-color:#0e2020;stop-opacity:1;"
         offset="0"
         id="stop7" />
      <stop
         style="stop-color:#0c1818;stop-opacity:1;"
         offset="1"
         id="stop8" />
    </linearGradient>
    <linearGradient
       inkscape:collect="always"
       xlink:href="#linearGradient7"
       id="linearGradient8"
       x1="0"
       y1="64.25"
       x2="15.24"
       y2="64.25"
       gradientUnits="userSpaceOnUse" />
  </defs>
  <g
     inkscape:groupmode="layer"
     id="layer2"
     inkscape:label="UI">
    <rect
       style="display:inline;fill:url(#linearGradient8);fill-opacity:1;stroke-width:0.264583"
       id="rect1"
       width="15.24"
       height="128.5"
       x="0"
       y="0"
       ry="0"
       inkscape:label="BG_MODULE" />
    <circle
       style="display:inline;fill:#fffff0;fill-opacity:1;stroke-width:0.306971"
       id="circle1"
       cx="7.6199999"
       cy="15.25"
       inkscape:label="BG_INPUT"
       r="4.25" />
    <circle
       style="display:inline;fill:#fffff0;fill-opacity:1;stroke-width:0.306971"
       id="circle14"
       cx="7.6199999"
       cy="31.920116"
       inkscape:label="BG_TRIGGER"
       r="4.25" />
    <text
       xml:space="preserve"
       style="font-weight:bold;font-size:2.82222px;font-family:'Caesar Dressing';-inkscape-font-specification:'Caesar Dressing Bold';display:inline;fill:#fffff0;fill-opacity:1;stroke-width:0.264583"
       x="3.685823"
       y="23.478376"
       id="text3"
       inkscape:label="TEXT_INPUT"><tspan
         sodipodi:role="line"
         id="tspan2"
         style="font-style:normal;font-variant:normal;font-weight:bold;font-stretch:normal;font-size:2.82222px;font-family:'Lilita One';-inkscape-font-specification:'Lilita One Bold';fill:#fffff0;fill-opacity:1;stroke-width:0.264583"
         x="3.685823"
         y="23.478376">INPUT</tspan></text>
    <text
       xml:space="preserve"
       style="font-weight:bold;font-size:2.82222px;font-family:'Caesar Dressing';-inkscape-font-specification:'Caesar Dressing Bold';display:inline;fill:#fffff0;fill-opacity:1;stroke-width:0.264583"
       x="2.2055671"
       y="40.000954"
       id="text1"
       inkscape:label="TEXT_TRIGGER"><tspan
         sodipodi:role="line"
         id="tspan1"
         style="font-style:normal;font-variant:normal;font-weight:bold;font-stretch:normal;font-size:2.82222px;font-family:'Lilita One';-inkscape-font-specification:'Lilita One Bold';fill:#fffff0;fill-opacity:1;stroke-width:0.264583"
         x="2.2055671"
         y="40.000954">TRIGGER</tspan></text>
    <text
       xml:space="preserve"
       style="font-weight:bold;font-size:4.93889px;font-family:'Caesar Dressing';-inkscape-font-specification:'Caesar Dressing Bold';display:inline;fill:#fffff0;fill-opacity:1;stroke-width:0.264583"
       x="1.263196"
       y="6.4769788"
       id="text5"
       inkscape:label="TEXT_LOGO"><tspan
         sodipodi:role="line"
         id="tspan4"
         style="font-style:normal;font-variant:normal;font-weight:bold;font-stretch:normal;font-size:4.93889px;font-family:'Lilita One';-inkscape-font-specification:'Lilita One Bold';fill:#fffff0;fill-opacity:1;stroke-width:0.264583"
         x="1.263196"
         y="6.4769788">PHNX</tspan></text>
    <text
       xml:space="preserve"
       style="font-weight:bold;font-size:3.52777px;font-family:'Caesar Dressing';-inkscape-font-specification:'Caesar Dressing Bold';display:inline;fill:#fffff0;fill-opacity:1;stroke-width:0.264583"
       x="2.1995809"
       y="125.47297"
       id="text4"
       inkscape:label="TEXT_INPUT"><tspan
         sodipodi:role="line"
         id="tspan3"
         style="font-style:normal;font-variant:normal;font-weight:bold;font-stretch:normal;font-family:'Lilita One';-inkscape-font-specification:'Lilita One Bold';fill:#fffff0;fill-opacity:1;stroke-width:0.264583"
         x="2.1995809"
         y="125.47297">evrwhr</tspan></text>
    <path
       style="font-weight:bold;font-size:5.64444px;font-family:'Lilita One';-inkscape-font-specification:'Lilita One Bold';display:none;fill:#fffff0;stroke-width:0.264583"
       d="m 1.1283773,6.9849746 q -0.513644,0 -0.513644,-0.1128888 V 3.2144886 q 0,-0.191911 0.17497764,-0.191911 H 1.7831324 q 0.8353771,0 1.2022658,0.3443109 0.372533,0.3443108 0.372533,0.9990659 0,0.5418662 -0.3499553,0.9934215 Q 2.8329983,5.5851535 2.4943319,5.72062 2.1556654,5.8560866 1.7041102,5.8560866 v 1.0103548 q 0,0.067733 -0.2144887,0.095955 -0.2088443,0.022578 -0.3612442,0.022578 z M 1.7041102,4.0047102 v 0.8918216 h 0.073378 q 0.1975554,0 0.3330219,-0.1241777 0.1354666,-0.1241777 0.1354666,-0.3499553 0,-0.2257776 -0.095956,-0.3217331 -0.090311,-0.095956 -0.3273775,-0.095956 z m 5.2211056,2.8730201 q 0,0.095955 -0.5700885,0.095955 -0.5700885,0 -0.5700885,-0.095955 V 5.579509 H 4.9948172 v 1.2982213 q 0,0.095955 -0.5700884,0.095955 -0.5700885,0 -0.5700885,-0.095955 V 3.1354664 q 0,-0.1185332 0.5700885,-0.1185332 0.5700884,0 0.5700884,0.1185332 V 4.4619099 H 5.7850388 V 3.1467553 q 0,-0.079022 0.2822221,-0.1128888 0.1467554,-0.011289 0.2878664,-0.011289 l 0.2878664,0.011289 q 0.2822221,0.033867 0.2822221,0.1128888 z m 3.6575912,-0.028222 q 0,0.1185332 -0.530577,0.1185332 -0.5305769,0 -0.5757325,-0.084667 L 8.533876,5.1223094 v 1.7554209 q 0,0.1015999 -0.5249329,0.1015999 -0.5192885,0 -0.5192885,-0.1015999 V 3.1015998 q 0,-0.084667 0.4459108,-0.084667 0.1749776,0 0.4063997,0.033867 0.2370665,0.028222 0.2878664,0.1128888 L 9.5329419,4.9021762 V 3.129822 q 0,-0.1072444 0.5249321,-0.1072444 0.524933,0 0.524933,0.1072444 z m 2.658535,-3.6745306 q 0.06773,-0.1693332 0.705555,-0.1693332 0.163689,0 0.400756,0.028222 0.242711,0.022578 0.242711,0.045156 l -0.959555,1.9529763 0.993421,1.8683097 q 0.01693,0.028222 -0.242711,0.056444 -0.259644,0.022578 -0.440266,0.022578 -0.716844,0 -0.784577,-0.191911 L 12.733343,5.7093311 12.349521,6.8212859 q -0.05644,0.1580443 -0.722488,0.1580443 -0.163689,0 -0.4064,-0.022578 Q 10.977922,6.9341742 11.0005,6.8946632 L 11.881032,4.9416873 10.966633,3.079022 Q 10.949703,3.0508 11.198055,3.028222 11.452055,3 11.627033,3 q 0.711199,0 0.778932,0.2031998 l 0.389467,0.948266 z"
       id="text2"
       inkscape:label="TEXT_LOGO"
       aria-label="PHNX" />
    <circle
       style="display:inline;fill:#fffff0;fill-opacity:1;stroke-width:0.306971"
       id="circle5"
       cx="7.6199999"
       cy="48.25"
       inkscape:label="BG_TRIGGER"
       r="4.25" />
    <text
       xml:space="preserve"
       style="font-weight:bold;font-size:2.82222px;font-family:'Caesar Dressing';-inkscape-font-specification:'Caesar Dressing Bold';display:inline;fill:#fffff0;fill-opacity:1;stroke-width:0.264583"
       x="5.0108585"
       y="56.500954"
       id="text6"
       inkscape:label="TEXT_TRIGGER"><tspan
         sodipodi:role="line"
         id="tspan5"
         style="font-style:normal;font-variant:normal;font-weight:bold;font-stretch:normal;font-size:2.82222px;font-family:'Lilita One';-inkscape-font-specification:'Lilita One Bold';fill:#fffff0;fill-opacity:1;stroke-width:0.264583"
         x="5.0108585"
         y="56.500954">OUT</tspan></text>
  </g>
  <g
     inkscape:groupmode="layer"
     id="layer1"
     inkscape:label="components"
     style="display:inline">
    <circle
       style="fill:#00ff00;fill-opacity:1;stroke-width:0.288914"
       id="circle9"
       cx="7.6199999"
       cy="15.25"
       inkscape:label="SIGNAL"
       r="4" />
    <circle
       style="fill:#00ff00;fill-opacity:1;stroke-width:0.288914"
       id="circle6"
       cx="7.6199999"
       cy="31.920116"
       inkscape:label="TRIGGER"
       r="4" />
    <circle
       style="fill:#0000ff;fill-opacity:1;stroke-width:0.288914"
       id="circle7"
       cx="7.6199999"
       cy="48.25"
       inkscape:label="OUT"
       r="4" />
  </g>
</svg>
