<?xml version="1.0" encoding="UTF-8" standalone="no"?>
<!-- Created with Inkscape (http://www.inkscape.org/) -->

<svg
   width="30.48mm"
   height="128.5mm"
   viewBox="0 0 30.48 128.5"
   version="1.1"
   id="svg1"
   inkscape:version="1.3.2 (091e20e, 2023-11-25)"
   sodipodi:docname="Phoenix.svg"
   xmlns:inkscape="http://www.inkscape.org/namespaces/inkscape"
   xmlns:sodipodi="http://sodipodi.sourceforge.net/DTD/sodipodi-0.dtd"
   xmlns="http://www.w3.org/2000/svg"
   xmlns:svg="http://www.w3.org/2000/svg">
  <sodipodi:namedview
     id="namedview1"
     pagecolor="#ffffff"
     bordercolor="#cccccc"
     borderopacity="1"
     inkscape:showpageshadow="0"
     inkscape:pageopacity="1"
     inkscape:pagecheckerboard="0"
     inkscape:deskcolor="#d1d1d1"
     inkscape:document-units="mm"
     inkscape:zoom="1.2186177"
     inkscape:cx="14.770834"
     inkscape:cy="236.74365"
     inkscape:window-width="2560"
     inkscape:window-height="1328"
     inkscape:window-x="0"
     inkscape:window-y="25"
     inkscape:window-maximized="0"
     inkscape:current-layer="layer2" />
  <defs
     id="defs1" />
  <g
     inkscape:groupmode="layer"
     id="layer2"
     inkscape:label="UI">
    <rect
       style="display:inline;fill:#141414;fill-opacity:1;stroke-width:0.374177"
       id="rect1"
       width="30.48"
       height="128.5"
       x="0"
       y="0"
       ry="0"
       inkscape:label="BG_MODULE" />
    <circle
       style="display:inline;fill:#fffff0;fill-opacity:1;stroke-width:0.306971"
       id="circle1"
       cx="8.25"
       cy="97.25"
       inkscape:label="BG_INPUT"
       r="4.25" />
    <circle
       style="display:inline;fill:#fffff0;fill-opacity:1;stroke-width:0.306971"
       id="circle14"
       cx="22.25"
       cy="97.25"
       inkscape:label="BG_HIT"
       r="4.25" />
    <circle
       style="display:inline;fill:#fffff0;fill-opacity:1;stroke-width:0.306971"
       id="circle5"
       cx="22.25"
       cy="113.75"
       inkscape:label="BG_OUT"
       r="4.25" />
    <circle
       style="display:inline;fill:#fffff0;fill-opacity:1;stroke-width:0.306971"
       id="circle2"
       cx="22.25"
       cy="17.749695"
       inkscape:label="BG_FALL_PARAM"
       r="4.25" />
    <circle
       style="display:inline;fill:#fffff0;fill-opacity:1;stroke-width:0.306971"
       id="circle8"
       cx="8.25"
       cy="17.749695"
       inkscape:label="BG_RISE_PARAM"
       r="4.25" />
    <circle
       style="display:inline;fill:#fffff0;fill-opacity:1;stroke-width:0.306971"
       id="circle10"
       cx="8.5101328"
       cy="64.235413"
       inkscape:label="BG_INVERT"
       r="4.25" />
    <circle
       style="display:inline;fill:#fffff0;fill-opacity:1;stroke-width:0.306971"
       id="circle11"
       cx="8.25"
       cy="80.75"
       inkscape:label="BG_RISEN"
       r="4.25" />
    <circle
       style="display:inline;fill:#fffff0;fill-opacity:1;stroke-width:0.306971"
       id="circle3"
       cx="22.25"
       cy="80.75"
       inkscape:label="BG_FALLEN"
       r="4.25" />
    <circle
       style="display:inline;fill:#fffff0;fill-opacity:1;stroke-width:0.180571"
       id="circle17"
       cx="15.24"
       cy="49.037384"
       inkscape:label="BG_AM"
       r="2.5" />
    <circle
       style="display:inline;fill:#fffff0;fill-opacity:1;stroke-width:0.180571"
       id="circle18"
       cx="8.25"
       cy="26.009117"
       inkscape:label="BG_RISE_CV"
       r="2.5" />
    <circle
       style="display:inline;fill:#fffff0;fill-opacity:1;stroke-width:0.306971"
       id="circle19"
       cx="8.25"
       cy="34.268539"
       inkscape:label="BG_RISE_INPUT"
       r="4.25" />
    <circle
       style="display:inline;fill:#fffff0;fill-opacity:1;stroke-width:0.180571"
       id="circle20"
       cx="22.25"
       cy="26.009117"
       inkscape:label="BG_FALL_CV"
       r="2.5" />
    <circle
       style="display:inline;fill:#fffff0;fill-opacity:1;stroke-width:0.306971"
       id="circle21"
       cx="22.25"
       cy="34.268539"
       inkscape:label="BG_FALL_INPUT"
       r="4.25" />
    <circle
       style="display:inline;fill:#fffff0;fill-opacity:1;stroke-width:0.180571"
       id="circle25"
       cx="23.988928"
       cy="49.037384"
       inkscape:label="BG_WM"
       r="2.5" />
    <circle
       style="display:inline;fill:#fffff0;fill-opacity:1;stroke-width:0.306971"
       id="circle26"
       cx="22.25"
       cy="64.25"
       inkscape:label="BG_LIN_EXP"
       r="4.25" />
    <circle
       style="display:inline;fill:#fffff0;fill-opacity:1;stroke-width:0.306971"
       id="circle23"
       cx="8.25"
       cy="113.75"
       inkscape:label="BG_AUX"
       r="4.25" />
    <circle
       style="display:inline;fill:#fffff0;fill-opacity:1;stroke-width:0.180571"
       id="circle24"
       cx="6.4910717"
       cy="49.037384"
       inkscape:label="BG_OM"
       r="2.5" />
    <text
       xml:space="preserve"
       style="font-weight:bold;font-size:2.82222px;font-family:'Caesar Dressing';-inkscape-font-specification:'Caesar Dressing Bold';display:none;fill:#fffff0;fill-opacity:1;stroke-width:0.264583"
       x="4.3158231"
       y="105.47838"
       id="text3"
       inkscape:label="TEXT_INPUT"><tspan
         sodipodi:role="line"
         id="tspan2"
         style="font-style:normal;font-variant:normal;font-weight:bold;font-stretch:normal;font-size:2.82222px;font-family:'Lilita One';-inkscape-font-specification:'Lilita One Bold';fill:#fffff0;fill-opacity:1;stroke-width:0.264583"
         x="0"
         y="0">INPUT</tspan></text>
    <text
       xml:space="preserve"
       style="font-weight:bold;font-size:2.82222px;font-family:'Caesar Dressing';-inkscape-font-specification:'Caesar Dressing Bold';display:none;fill:#fffff0;fill-opacity:1;stroke-width:0.264583"
       x="19.966824"
       y="105.48685"
       id="text1"
       inkscape:label="TEXT_HIT"><tspan
         sodipodi:role="line"
         id="tspan1"
         style="font-style:normal;font-variant:normal;font-weight:bold;font-stretch:normal;font-size:2.82222px;font-family:'Lilita One';-inkscape-font-specification:'Lilita One Bold';fill:#fffff0;fill-opacity:1;stroke-width:0.264583"
         x="0"
         y="0">HIT</tspan></text>
    <text
       xml:space="preserve"
       style="font-weight:bold;font-size:2.82222px;font-family:'Caesar Dressing';-inkscape-font-specification:'Caesar Dressing Bold';display:none;fill:#fffff0;fill-opacity:1;stroke-width:0.264583"
       x="19.640858"
       y="122.00095"
       id="text6"
       inkscape:label="TEXT_OUT"><tspan
         sodipodi:role="line"
         id="tspan5"
         style="font-style:normal;font-variant:normal;font-weight:bold;font-stretch:normal;font-size:2.82222px;font-family:'Lilita One';-inkscape-font-specification:'Lilita One Bold';fill:#fffff0;fill-opacity:1;stroke-width:0.264583"
         x="0"
         y="0">OUT</tspan></text>
    <text
       xml:space="preserve"
       style="font-weight:bold;font-size:2.82222px;font-family:'Caesar Dressing';-inkscape-font-specification:'Caesar Dressing Bold';display:none;fill:#fffff0;fill-opacity:1;stroke-width:0.264583"
       x="19.446125"
       y="42.019039"
       id="text7"
       inkscape:label="TEXT_FALL"><tspan
         sodipodi:role="line"
         id="tspan6"
         style="font-style:normal;font-variant:normal;font-weight:bold;font-stretch:normal;font-size:2.82222px;font-family:'Lilita One';-inkscape-font-specification:'Lilita One Bold';fill:#fffff0;fill-opacity:1;stroke-width:0.264583"
         x="0"
         y="0">FALL</tspan></text>
    <text
       xml:space="preserve"
       style="font-weight:bold;font-size:2.82222px;font-family:'Caesar Dressing';-inkscape-font-specification:'Caesar Dressing Bold';display:none;fill:#fffff0;fill-opacity:1;stroke-width:0.264583"
       x="5.3487563"
       y="42.028915"
       id="text8"
       inkscape:label="TEXT_RISE"><tspan
         sodipodi:role="line"
         id="tspan8"
         style="font-style:normal;font-variant:normal;font-weight:bold;font-stretch:normal;font-size:2.82222px;font-family:'Lilita One';-inkscape-font-specification:'Lilita One Bold';fill:#fffff0;fill-opacity:1;stroke-width:0.264583"
         x="0"
         y="0">RISE</tspan></text>
    <text
       xml:space="preserve"
       style="font-weight:bold;font-size:2.82222px;font-family:'Caesar Dressing';-inkscape-font-specification:'Caesar Dressing Bold';display:none;fill:#fffff0;fill-opacity:1;stroke-width:0.264583"
       x="3.805491"
       y="72.463791"
       id="text10"
       inkscape:label="TEXT_INVERT"><tspan
         sodipodi:role="line"
         id="tspan10"
         style="font-style:normal;font-variant:normal;font-weight:bold;font-stretch:normal;font-size:2.82222px;font-family:'Lilita One';-inkscape-font-specification:'Lilita One Bold';fill:#fffff0;fill-opacity:1;stroke-width:0.264583"
         x="0"
         y="0">INVERT</tspan></text>
    <text
       xml:space="preserve"
       style="font-weight:bold;font-size:2.82222px;font-family:'Caesar Dressing';-inkscape-font-specification:'Caesar Dressing Bold';display:none;fill:#fffff0;fill-opacity:1;stroke-width:0.264583"
       x="4.4527011"
       y="89.000954"
       id="text11"
       inkscape:label="TEXT_RISEN"><tspan
         sodipodi:role="line"
         id="tspan11"
         style="font-style:normal;font-variant:normal;font-weight:bold;font-stretch:normal;font-size:2.82222px;font-family:'Lilita One';-inkscape-font-specification:'Lilita One Bold';fill:#fffff0;fill-opacity:1;stroke-width:0.264583"
         x="0"
         y="0">RISEN</tspan></text>
    <text
       xml:space="preserve"
       style="font-weight:bold;font-size:2.82222px;font-family:'Caesar Dressing';-inkscape-font-specification:'Caesar Dressing Bold';display:none;fill:#fffff0;fill-opacity:1;stroke-width:0.264583"
       x="17.892492"
       y="88.991074"
       id="text4"
       inkscape:label="TEXT_FALLEN"><tspan
         sodipodi:role="line"
         id="tspan3"
         style="font-style:normal;font-variant:normal;font-weight:bold;font-stretch:normal;font-size:2.82222px;font-family:'Lilita One';-inkscape-font-specification:'Lilita One Bold';fill:#fffff0;fill-opacity:1;stroke-width:0.264583"
         x="0"
         y="0">FALLEN</tspan></text>
    <text
       xml:space="preserve"
       style="font-weight:bold;font-size:2.82222px;font-family:'Caesar Dressing';-inkscape-font-specification:'Caesar Dressing Bold';display:none;fill:#fffff0;fill-opacity:1;stroke-width:0.264583"
       x="5.4783192"
       y="121.9939"
       id="text23"
       inkscape:label="TEXT_AUX"><tspan
         sodipodi:role="line"
         id="tspan23"
         style="font-style:normal;font-variant:normal;font-weight:bold;font-stretch:normal;font-size:2.82222px;font-family:'Lilita One';-inkscape-font-specification:'Lilita One Bold';fill:#fffff0;fill-opacity:1;stroke-width:0.264583"
         x="0"
         y="0">AUX</tspan></text>
    <text
       xml:space="preserve"
       style="font-weight:bold;font-size:2.82222px;font-family:'Caesar Dressing';-inkscape-font-specification:'Caesar Dressing Bold';display:none;fill:#fffff0;fill-opacity:1;stroke-width:0.264583"
       x="21.403894"
       y="55.049171"
       id="text9"
       inkscape:label="TEXT_WM"><tspan
         sodipodi:role="line"
         id="tspan7"
         style="font-style:normal;font-variant:normal;font-weight:bold;font-stretch:normal;font-size:2.82222px;font-family:'Lilita One';-inkscape-font-specification:'Lilita One Bold';fill:#fffff0;fill-opacity:1;stroke-width:0.264583"
         x="0"
         y="0">WM</tspan></text>
    <text
       xml:space="preserve"
       style="font-weight:bold;font-size:2.82222px;font-family:'Caesar Dressing';-inkscape-font-specification:'Caesar Dressing Bold';display:none;fill:#fffff0;fill-opacity:1;stroke-width:0.264583"
       x="4.2558746"
       y="55.04776"
       id="text24"
       inkscape:label="TEXT_OM"><tspan
         sodipodi:role="line"
         id="tspan24"
         style="font-style:normal;font-variant:normal;font-weight:bold;font-stretch:normal;font-size:2.82222px;font-family:'Lilita One';-inkscape-font-specification:'Lilita One Bold';fill:#fffff0;fill-opacity:1;stroke-width:0.264583"
         x="0"
         y="0">OM</tspan></text>
    <text
       xml:space="preserve"
       style="font-weight:bold;font-size:2.82222px;font-family:'Caesar Dressing';-inkscape-font-specification:'Caesar Dressing Bold';display:none;fill:#fffff0;fill-opacity:1;stroke-width:0.264583"
       x="13.083822"
       y="55.04776"
       id="text25"
       inkscape:label="TEXT_AM"><tspan
         sodipodi:role="line"
         id="tspan25"
         style="font-style:normal;font-variant:normal;font-weight:bold;font-stretch:normal;font-size:2.82222px;font-family:'Lilita One';-inkscape-font-specification:'Lilita One Bold';fill:#fffff0;fill-opacity:1;stroke-width:0.264583"
         x="0"
         y="0">AM</tspan></text>
    <text
       xml:space="preserve"
       style="font-weight:bold;font-size:2.82222px;font-family:'Caesar Dressing';-inkscape-font-specification:'Caesar Dressing Bold';display:none;fill:#fffff0;fill-opacity:1;stroke-width:0.264583"
       x="16.841213"
       y="72.444038"
       id="text26"
       inkscape:label="TEXT_LIN_EXP"><tspan
         sodipodi:role="line"
         id="tspan26"
         style="font-style:normal;font-variant:normal;font-weight:bold;font-stretch:normal;font-size:2.82222px;font-family:'Lilita One';-inkscape-font-specification:'Lilita One Bold';fill:#fffff0;fill-opacity:1;stroke-width:0.264583"
         x="0"
         y="0">LIN/EXP</tspan></text>
    <text
       xml:space="preserve"
       style="font-weight:bold;font-size:4.93889px;font-family:'Caesar Dressing';-inkscape-font-specification:'Caesar Dressing Bold';display:none;fill:#fffff0;fill-opacity:1;stroke-width:0.264583"
       x="4.8876343"
       y="9.4766731"
       id="text5"
       inkscape:label="TEXT_LOGO"><tspan
         sodipodi:role="line"
         id="tspan4"
         style="font-style:normal;font-variant:normal;font-weight:bold;font-stretch:normal;font-size:4.93889px;font-family:'Lilita One';-inkscape-font-specification:'Lilita One Bold';fill:#fffff0;fill-opacity:1;stroke-width:0.264583"
         x="0"
         y="0">PHOENIX</tspan></text>
    <path
       style="font-weight:bold;font-size:2.82222px;font-family:'Lilita One';-inkscape-font-specification:'Lilita One Bold';fill:#fffff0;stroke-width:0.264583"
       d="m 4.6432006,104.99296 v -1.00471 H 4.442823 q -0.047978,0 -0.067733,-0.12136 -0.00847,-0.0593 -0.00847,-0.12135 0,-0.0621 0.00847,-0.12136 0.019755,-0.12136 0.067733,-0.12136 h 0.9482659 q 0.047978,0 0.064911,0.12136 0.011289,0.0593 0.011289,0.12136 0,0.0621 -0.011289,0.12135 -0.016933,0.12136 -0.064911,0.12136 H 5.2020002 v 1.00471 h 0.1975554 q 0.047978,0 0.067733,0.12135 0.011289,0.0593 0.011289,0.12136 0,0.0621 -0.011289,0.12135 -0.019756,0.12136 -0.067733,0.12136 H 4.4484674 q -0.047978,0 -0.064911,-0.12136 -0.011289,-0.0593 -0.011289,-0.12135 0,-0.0621 0.011289,-0.12136 0.016933,-0.12135 0.064911,-0.12135 z m 2.5710449,0.42333 q 0,0.0593 -0.2652887,0.0593 -0.2652886,0 -0.2878664,-0.0423 l -0.4713108,-0.88053 v 0.87771 q 0,0.0508 -0.2624664,0.0508 -0.2596443,0 -0.2596443,-0.0508 v -1.88806 q 0,-0.0423 0.2229554,-0.0423 0.087489,0 0.2031999,0.0169 0.1185332,0.0141 0.1439332,0.0564 l 0.4515552,0.86924 v -0.88617 q 0,-0.0536 0.2624665,-0.0536 0.2624664,0 0.2624664,0.0536 z m 0.5277573,0.0677 q -0.2568221,0 -0.2568221,-0.0564 v -1.8288 q 0,-0.096 0.087489,-0.096 h 0.4967108 q 0.4176886,0 0.6011329,0.17216 0.1862665,0.17216 0.1862665,0.49953 0,0.27094 -0.1749777,0.49671 -0.087489,0.11289 -0.256822,0.18063 -0.1693332,0.0677 -0.3951108,0.0677 v 0.50518 q 0,0.0339 -0.1072444,0.048 -0.1044221,0.0113 -0.180622,0.0113 z m 0.2878664,-1.49013 v 0.44591 h 0.036689 q 0.098778,0 0.1665109,-0.0621 0.067733,-0.0621 0.067733,-0.17498 0,-0.11288 -0.047978,-0.16086 -0.045155,-0.048 -0.1636888,-0.048 z M 10.028,103.55927 q 0,-0.0564 0.3048,-0.0564 0.307622,0 0.307622,0.0564 v 1.2954 q 0,0.28786 -0.206022,0.47131 -0.206022,0.18062 -0.5700887,0.18062 -0.3612442,0 -0.589844,-0.18627 -0.2257776,-0.18908 -0.2257776,-0.508 v -1.25024 q 0,-0.0564 0.3047998,-0.0564 0.307622,0 0.307622,0.0564 v 1.27282 q 0,0.0565 0.059267,0.0903 0.062089,0.0339 0.1298221,0.0339 0.067733,0 0.1213555,-0.031 0.056444,-0.031 0.056444,-0.0931 z m 1.698977,1.87395 q 0,0.0564 -0.279399,0.0564 -0.2794,0 -0.2794,-0.0564 v -1.41675 h -0.338667 q -0.04798,0 -0.06773,-0.12982 -0.0085,-0.0621 -0.0085,-0.127 0,-0.0649 0.0085,-0.127 0.01976,-0.12983 0.06773,-0.12983 h 1.227666 q 0.04798,0 0.06773,0.12983 0.0085,0.0621 0.0085,0.127 0,0.0649 -0.0085,0.127 -0.01975,0.12982 -0.06773,0.12982 h -0.3302 z"
       id="text36"
       inkscape:label="TEXT_INPUT"
       aria-label="INPUT" />
    <path
       style="font-weight:bold;font-size:2.82222px;font-family:'Lilita One';-inkscape-font-specification:'Lilita One Bold';fill:#fffff0;stroke-width:0.264583"
       d="m 21.643222,105.43887 q 0,0.048 -0.285044,0.048 -0.285044,0 -0.285044,-0.048 v -0.64911 h -0.395111 v 0.64911 q 0,0.048 -0.285044,0.048 -0.285044,0 -0.285044,-0.048 v -1.87113 q 0,-0.0593 0.285044,-0.0593 0.285044,0 0.285044,0.0593 v 0.66322 h 0.395111 v -0.65758 q 0,-0.0395 0.141111,-0.0564 0.07338,-0.006 0.143933,-0.006 l 0.143933,0.006 q 0.141111,0.0169 0.141111,0.0564 z m 0.468486,-0.43744 v -1.00472 h -0.200377 q -0.04798,0 -0.06773,-0.12135 -0.0085,-0.0593 -0.0085,-0.12136 0,-0.0621 0.0085,-0.12135 0.01976,-0.12136 0.06773,-0.12136 h 0.948266 q 0.04798,0 0.06491,0.12136 0.01129,0.0593 0.01129,0.12135 0,0.0621 -0.01129,0.12136 -0.01693,0.12135 -0.06491,0.12135 h -0.189089 v 1.00472 h 0.197555 q 0.04798,0 0.06773,0.12135 0.01129,0.0593 0.01129,0.12136 0,0.0621 -0.01129,0.12135 -0.01976,0.12136 -0.06773,0.12136 h -0.951088 q -0.04798,0 -0.06491,-0.12136 -0.01129,-0.0593 -0.01129,-0.12135 0,-0.0621 0.01129,-0.12136 0.01693,-0.12135 0.06491,-0.12135 z m 1.873957,0.44026 q 0,0.0565 -0.2794,0.0565 -0.2794,0 -0.2794,-0.0565 v -1.41675 h -0.338666 q -0.04798,0 -0.06773,-0.12983 -0.0085,-0.0621 -0.0085,-0.127 0,-0.0649 0.0085,-0.127 0.01975,-0.12982 0.06773,-0.12982 h 1.227666 q 0.04798,0 0.06773,0.12982 0.0085,0.0621 0.0085,0.127 0,0.0649 -0.0085,0.127 -0.01976,0.12983 -0.06773,0.12983 h -0.3302 z"
       id="text37"
       inkscape:label="TEXT_HIT"
       aria-label="HIT" />
    <path
       style="font-weight:bold;font-size:2.82222px;font-family:'Lilita One';-inkscape-font-specification:'Lilita One Bold';fill:#fffff0;stroke-width:0.264583"
       d="m 20.620168,122.02918 q -0.395111,0 -0.646288,-0.25965 -0.248356,-0.25964 -0.248356,-0.75635 0,-0.49954 0.251178,-0.75636 Q 20.230702,120 20.628635,120 q 0.400755,0 0.646288,0.254 0.245533,0.25118 0.245533,0.76482 0,0.51082 -0.251177,0.762 -0.251178,0.24836 -0.649111,0.24836 z m 0.0028,-1.48731 q -0.135466,0 -0.2286,0.12417 -0.09031,0.12418 -0.09031,0.34996 0,0.22295 0.08749,0.34431 0.08749,0.11853 0.2286,0.11853 0.143933,0 0.231422,-0.12135 0.09031,-0.12136 0.09031,-0.34714 0,-0.22577 -0.09313,-0.34713 -0.09031,-0.12135 -0.225778,-0.12135 z m 2.046107,-0.46003 q 0,-0.0564 0.3048,-0.0564 0.307622,0 0.307622,0.0564 v 1.2954 q 0,0.28787 -0.206022,0.47131 -0.206022,0.18063 -0.570088,0.18063 -0.361245,0 -0.589844,-0.18627 -0.225778,-0.18909 -0.225778,-0.508 v -1.25024 q 0,-0.0564 0.3048,-0.0564 0.307622,0 0.307622,0.0564 v 1.27282 q 0,0.0564 0.05927,0.0903 0.06209,0.0339 0.129823,0.0339 0.06773,0 0.121355,-0.031 0.05644,-0.031 0.05644,-0.0931 z m 1.698978,1.87396 q 0,0.0564 -0.2794,0.0564 -0.2794,0 -0.2794,-0.0564 v -1.41676 h -0.338666 q -0.04798,0 -0.06773,-0.12982 -0.0085,-0.0621 -0.0085,-0.127 0,-0.0649 0.0085,-0.127 0.01976,-0.12982 0.06773,-0.12982 h 1.227665 q 0.04798,0 0.06773,0.12982 0.0085,0.0621 0.0085,0.127 0,0.0649 -0.0085,0.127 -0.01976,0.12982 -0.06773,0.12982 h -0.330199 z"
       id="text38"
       inkscape:label="TEXT_OUT"
       aria-label="OUT" />
    <path
       style="font-weight:bold;font-size:2.82222px;font-family:'Lilita One';-inkscape-font-specification:'Lilita One Bold';fill:#fffff0;stroke-width:0.264583"
       d="m 20.642746,40.043485 q 0.04798,0 0.04798,0.251178 0,0.248355 -0.04798,0.248355 H 20.12628 v 0.321733 h 0.344311 q 0.04798,0 0.04798,0.220133 0,0.217311 -0.04516,0.217311 H 20.12628 v 0.680155 q 0,0.03951 -0.107244,0.0508 -0.104422,0.01411 -0.174978,0.01411 l -0.132644,-0.0056 q -0.138289,-0.01693 -0.138289,-0.05644 v -1.86831 q 0,-0.04516 0.01693,-0.05927 0.01976,-0.01411 0.05645,-0.01411 z m 1.476022,1.981199 q -0.245534,0 -0.265289,-0.07902 l -0.09313,-0.364066 h -0.448733 l -0.08185,0.349955 q -0.01693,0.08749 -0.270933,0.08749 -0.135466,0 -0.200377,-0.01411 -0.06491,-0.01693 -0.06491,-0.0254 l 0.499533,-1.910643 q 0,-0.02258 0.386645,-0.02258 0.386644,0 0.386644,0.02258 l 0.488244,1.913465 q 0,0.01976 -0.129822,0.03105 -0.129822,0.01129 -0.206022,0.01129 z m -0.7366,-0.801511 h 0.296333 l -0.127,-0.584199 h -0.01693 z m 1.23049,0.629355 v -1.755421 q 0,-0.05927 0.285044,-0.05927 0.287867,0 0.287867,0.05927 v 1.382888 h 0.434622 q 0.0508,0 0.07056,0.132644 0.0085,0.06491 0.0085,0.132645 0,0.06773 -0.0085,0.138289 -0.02258,0.135466 -0.07338,0.135466 h -0.869243 q -0.06209,0 -0.09878,-0.0508 -0.03669,-0.0508 -0.03669,-0.115711 z m 1.227664,0 v -1.755421 q 0,-0.05927 0.285044,-0.05927 0.287867,0 0.287867,0.05927 v 1.382888 h 0.434622 q 0.0508,0 0.07056,0.132644 0.0085,0.06491 0.0085,0.132645 0,0.06773 -0.0085,0.138289 -0.02258,0.135466 -0.07338,0.135466 h -0.869243 q -0.06209,0 -0.09878,-0.0508 -0.03669,-0.0508 -0.03669,-0.115711 z"
       id="text39"
       inkscape:label="TEXT_FALL"
       aria-label="FALL" />
    <path
       style="font-weight:bold;font-size:2.82222px;font-family:'Lilita One';-inkscape-font-specification:'Lilita One Bold';fill:#fffff0;stroke-width:0.264583"
       d="m 6.0289114,41.989404 q 0,0.04516 -0.268111,0.04516 -0.2709331,0 -0.2709331,-0.04233 v -1.840088 q 0,-0.09878 0.1044222,-0.09878 h 0.539044 q 0.7422439,0 0.7422439,0.578555 0,0.174978 -0.067733,0.318911 -0.067733,0.141111 -0.191911,0.225778 l 0.3555998,0.592666 q -0.022578,0.06773 -0.1467555,0.155222 -0.1693332,0.121356 -0.2793998,0.121356 -0.1100666,0 -0.1636887,-0.07902 L 6.1164002,41.34876 h -0.087489 z m 0,-1.43651 v 0.423333 h 0.014111 q 0.2681109,0 0.2681109,-0.222955 0,-0.1016 -0.053622,-0.149578 -0.0508,-0.0508 -0.1693332,-0.0508 z m 1.3123327,0.9906 V 40.538783 H 7.1408664 q -0.047978,0 -0.067733,-0.121355 -0.00847,-0.05927 -0.00847,-0.121356 0,-0.06209 0.00847,-0.121355 0.019755,-0.121356 0.067733,-0.121356 h 0.948266 q 0.047978,0 0.064911,0.121356 0.011289,0.05927 0.011289,0.121355 0,0.06209 -0.011289,0.121356 -0.016933,0.121355 -0.064911,0.121355 H 7.9000437 v 1.004711 h 0.1975554 q 0.047978,0 0.067733,0.121355 0.011289,0.05927 0.011289,0.121355 0,0.06209 -0.011289,0.121356 -0.019755,0.121355 -0.067733,0.121355 H 7.1465109 q -0.047978,0 -0.064911,-0.121355 -0.011289,-0.05927 -0.011289,-0.121356 0,-0.06209 0.011289,-0.121355 0.016933,-0.121355 0.064911,-0.121355 z m 1.0978459,-0.2032 q 0.053622,0.04233 0.1834443,0.115711 0.1326443,0.07338 0.2511776,0.07338 0.1213555,0 0.1213555,-0.09313 0,-0.04233 -0.033867,-0.07338 -0.033867,-0.03387 -0.1241777,-0.0762 -0.090311,-0.04233 -0.1354665,-0.06491 -0.045156,-0.0254 -0.1213555,-0.07902 -0.073378,-0.05644 -0.1128888,-0.115711 -0.1128888,-0.160866 -0.1128888,-0.409222 0,-0.248355 0.1834443,-0.417688 0.1862665,-0.172156 0.4854219,-0.172156 0.2031998,0 0.3753552,0.04516 0.1721555,0.04233 0.1777999,0.112889 0,0.0085 0,0.01693 0,0.09878 -0.062089,0.251178 -0.062089,0.149577 -0.087489,0.166511 -0.1806221,-0.09313 -0.3245553,-0.09313 -0.141111,0 -0.141111,0.1016 0,0.06209 0.1044222,0.110067 0.022578,0.01129 0.064911,0.03104 0.042333,0.01976 0.095956,0.04798 0.056444,0.0254 0.1185332,0.06773 0.064911,0.03951 0.1382888,0.107245 0.1495777,0.141111 0.1495777,0.372533 0,0.301977 -0.166511,0.493888 -0.166511,0.191911 -0.513644,0.197556 -0.1693333,0 -0.307622,-0.02822 -0.1354666,-0.02822 -0.2370665,-0.110066 -0.1015999,-0.08185 -0.1015999,-0.197556 0,-0.115711 0.042333,-0.228599 0.042333,-0.115711 0.090311,-0.1524 z m 2.342443,-0.502355 q 0.05362,0 0.05362,0.197555 0,0.05927 -0.01411,0.141111 -0.01129,0.07902 -0.04516,0.07902 h -0.358422 v 0.282222 h 0.519288 q 0.04798,0 0.06491,0.124178 0.0085,0.05362 0.0085,0.115711 0,0.05927 -0.01693,0.155222 -0.01693,0.09595 -0.05645,0.09595 H 9.9715562 q -0.1072444,0 -0.1072444,-0.08749 V 40.12673 q 0,-0.07338 0.064911,-0.07338 h 1.0103552 q 0.05927,0 0.05927,0.251178 0,0.248355 -0.05927,0.248355 h -0.522111 v 0.285045 z"
       id="text40"
       inkscape:label="TEXT_RISE"
       aria-label="RISE" />
    <path
       style="font-weight:bold;font-size:2.82222px;font-family:'Lilita One';-inkscape-font-specification:'Lilita One Bold';fill:#fffff0;stroke-width:0.264583"
       d="m 4.1328685,71.978369 v -1.00471 H 3.9324909 q -0.047978,0 -0.067733,-0.121356 -0.00847,-0.05927 -0.00847,-0.121355 0,-0.06209 0.00847,-0.121356 0.019756,-0.121355 0.067733,-0.121355 h 0.9482659 q 0.047978,0 0.064911,0.121355 0.011289,0.05927 0.011289,0.121356 0,0.06209 -0.011289,0.121355 -0.016933,0.121356 -0.064911,0.121356 H 4.6916681 v 1.00471 h 0.1975554 q 0.047978,0 0.067733,0.121356 0.011289,0.05927 0.011289,0.121355 0,0.06209 -0.011289,0.121355 -0.019756,0.121356 -0.067733,0.121356 H 3.9381353 q -0.047978,0 -0.064911,-0.121356 -0.011289,-0.05927 -0.011289,-0.121355 0,-0.06209 0.011289,-0.121355 0.016933,-0.121356 0.064911,-0.121356 z m 2.5710449,0.423333 q 0,0.05927 -0.2652887,0.05927 -0.2652886,0 -0.2878664,-0.04233 L 5.6794475,71.538103 v 0.87771 q 0,0.0508 -0.2624664,0.0508 -0.2596443,0 -0.2596443,-0.0508 v -1.888065 q 0,-0.04233 0.2229554,-0.04233 0.087489,0 0.2031999,0.01693 0.1185332,0.01411 0.1439332,0.05644 l 0.4515552,0.869244 v -0.886177 q 0,-0.05362 0.2624665,-0.05362 0.2624664,0 0.2624664,0.05362 z m 0.1721575,-1.876776 q 0,-0.01411 0.1213555,-0.0254 0.1241777,-0.01411 0.2031998,-0.01411 0.3132665,0 0.3273776,0.08184 l 0.2427109,1.241777 0.2285998,-1.241777 q 0.016933,-0.08184 0.3499553,-0.08184 0.081844,0 0.2060221,0.01129 0.1241776,0.01129 0.1241776,0.0254 l -0.4995329,1.86831 q -0.011289,0.04516 -0.166511,0.05927 -0.2398887,0.0254 -0.4374441,0.01129 -0.1947332,-0.01693 -0.2060221,-0.05645 z m 2.8927738,0.747888 q 0.053622,0 0.053622,0.197555 0,0.05927 -0.014111,0.141111 -0.011289,0.07902 -0.045155,0.07902 h -0.358422 v 0.282222 h 0.5192885 q 0.047978,0 0.064911,0.124177 0.00847,0.05362 0.00847,0.115711 0,0.05927 -0.016933,0.155222 -0.016933,0.09596 -0.056444,0.09596 H 8.9588675 q -0.1072443,0 -0.1072443,-0.08749 v -1.814687 q 0,-0.07338 0.064911,-0.07338 H 9.926889 q 0.059267,0 0.059267,0.251177 0,0.248356 -0.059267,0.248356 H 9.4047783 v 0.285044 z m 1.0131773,1.151466 q 0,0.04516 -0.268111,0.04516 -0.270933,0 -0.270933,-0.04233 v -1.840087 q 0,-0.09878 0.104422,-0.09878 h 0.539044 q 0.742244,0 0.742244,0.578555 0,0.174978 -0.06773,0.318911 -0.06773,0.141111 -0.191911,0.225777 l 0.355599,0.592667 q -0.02258,0.06773 -0.146755,0.155222 -0.169333,0.121355 -0.2794,0.121355 -0.110067,0 -0.163689,-0.07902 l -0.265288,-0.618066 h -0.08749 z m 0,-1.43651 v 0.423333 h 0.01411 q 0.268111,0 0.268111,-0.222956 0,-0.1016 -0.05362,-0.149577 -0.0508,-0.0508 -0.169334,-0.0508 z m 1.975554,1.430865 q 0,0.05645 -0.2794,0.05645 -0.279399,0 -0.279399,-0.05645 V 71.001881 H 11.86011 q -0.04798,0 -0.06773,-0.129822 -0.0085,-0.06209 -0.0085,-0.127 0,-0.06491 0.0085,-0.127 0.01975,-0.129822 0.06773,-0.129822 h 1.227666 q 0.04798,0 0.06773,0.129822 0.0085,0.06209 0.0085,0.127 0,0.06491 -0.0085,0.127 -0.01975,0.129822 -0.06773,0.129822 h -0.3302 z"
       id="text41"
       inkscape:label="TEXT_INVERT"
       aria-label="INVERT" />
    <path
       style="font-weight:bold;font-size:2.82222px;font-family:'Lilita One';-inkscape-font-specification:'Lilita One Bold';fill:#fffff0;stroke-width:0.264583"
       d="m 5.1328561,88.961443 q 0,0.04515 -0.2681109,0.04515 -0.2709331,0 -0.2709331,-0.04233 v -1.840088 q 0,-0.09878 0.1044221,-0.09878 h 0.5390441 q 0.7422439,0 0.7422439,0.578555 0,0.174977 -0.067733,0.318911 -0.067733,0.141111 -0.191911,0.225777 l 0.3555997,0.592666 q -0.022578,0.06773 -0.1467554,0.155223 -0.1693332,0.121355 -0.2793998,0.121355 -0.1100666,0 -0.1636888,-0.07902 L 5.220345,88.320799 H 5.132856 Z m 0,-1.43651 v 0.423333 h 0.014111 q 0.2681109,0 0.2681109,-0.222956 0,-0.1016 -0.053622,-0.149577 -0.0508,-0.0508 -0.1693332,-0.0508 z m 1.3123328,0.990599 V 87.510821 H 6.2448112 q -0.047978,0 -0.067733,-0.121355 -0.00847,-0.05927 -0.00847,-0.121355 0,-0.06209 0.00847,-0.121356 0.019756,-0.121355 0.067733,-0.121355 h 0.948266 q 0.047978,0 0.064911,0.121355 0.011289,0.05927 0.011289,0.121356 0,0.06209 -0.011289,0.121355 -0.016933,0.121355 -0.064911,0.121355 H 7.0039884 v 1.004711 h 0.1975554 q 0.047978,0 0.067733,0.121355 0.011289,0.05927 0.011289,0.121356 0,0.06209 -0.011289,0.121355 -0.019756,0.121356 -0.067733,0.121356 H 6.2504557 q -0.047978,0 -0.064911,-0.121356 -0.011289,-0.05927 -0.011289,-0.121355 0,-0.06209 0.011289,-0.121356 0.016933,-0.121355 0.064911,-0.121355 z m 1.0978459,-0.2032 q 0.053622,0.04233 0.1834443,0.115711 0.1326443,0.07338 0.2511776,0.07338 0.1213554,0 0.1213554,-0.09313 0,-0.04233 -0.033867,-0.07338 -0.033867,-0.03387 -0.1241777,-0.0762 -0.090311,-0.04233 -0.1354666,-0.06491 -0.045155,-0.0254 -0.1213554,-0.07902 -0.073378,-0.05645 -0.1128888,-0.115711 -0.1128888,-0.160867 -0.1128888,-0.409222 0,-0.248356 0.1834443,-0.417689 Q 7.828079,87 8.1272343,87 q 0.2031999,0 0.3753553,0.04515 0.1721554,0.04233 0.1777999,0.112889 0,0.0085 0,0.01693 0,0.09878 -0.062089,0.251178 -0.062089,0.149578 -0.087489,0.166511 -0.1806221,-0.09313 -0.3245553,-0.09313 -0.141111,0 -0.141111,0.1016 0,0.06209 0.1044221,0.110066 0.022578,0.01129 0.064911,0.03105 0.042333,0.01976 0.095955,0.04798 0.056444,0.0254 0.1185332,0.06773 0.064911,0.03951 0.1382888,0.107244 0.1495777,0.141111 0.1495777,0.372533 0,0.301978 -0.166511,0.493888 -0.166511,0.191911 -0.5136441,0.197556 -0.1693332,0 -0.307622,-0.02822 -0.1354665,-0.02822 -0.2370664,-0.110067 -0.1016,-0.08184 -0.1016,-0.197555 0,-0.115711 0.042333,-0.2286 0.042333,-0.115711 0.090311,-0.1524 z m 2.3424433,-0.502355 q 0.053622,0 0.053622,0.197555 0,0.05927 -0.014111,0.141111 -0.011289,0.07902 -0.045155,0.07902 h -0.358422 v 0.282222 H 10.0407 q 0.04798,0 0.06491,0.124178 0.0085,0.05362 0.0085,0.115711 0,0.05927 -0.01693,0.155222 -0.01693,0.09596 -0.05645,0.09596 H 9.0755009 q -0.1072443,0 -0.1072443,-0.08749 v -1.814688 q 0,-0.07338 0.064911,-0.07338 h 1.0103544 q 0.05927,0 0.05927,0.251177 0,0.248356 -0.05927,0.248356 H 9.5214117 v 0.285044 z m 2.0207099,1.128888 q 0,0.05927 -0.265289,0.05927 -0.265289,0 -0.287866,-0.04233 l -0.471311,-0.880533 v 0.877711 q 0,0.0508 -0.262467,0.0508 -0.259644,0 -0.259644,-0.0508 v -1.888065 q 0,-0.04233 0.222956,-0.04233 0.08749,0 0.203199,0.01693 0.118534,0.01411 0.143934,0.05644 l 0.451555,0.869244 v -0.886177 q 0,-0.05362 0.262466,-0.05362 0.262467,0 0.262467,0.05362 z"
       id="text42"
       inkscape:label="TEXT_RISEN"
       aria-label="RISEN" />
    <path
       style="font-weight:bold;font-size:2.82222px;font-family:'Lilita One';-inkscape-font-specification:'Lilita One Bold';fill:#fffff0;stroke-width:0.264583"
       d="m 19.089114,87.01552 q 0.04798,0 0.04798,0.251177 0,0.248356 -0.04798,0.248356 h -0.516467 v 0.321733 h 0.344311 q 0.04798,0 0.04798,0.220133 0,0.217311 -0.04516,0.217311 h -0.347133 v 0.680155 q 0,0.03951 -0.107244,0.0508 -0.104422,0.01411 -0.174978,0.01411 l -0.132644,-0.0056 q -0.138289,-0.01693 -0.138289,-0.05644 v -1.86831 q 0,-0.04516 0.01693,-0.05927 0.01975,-0.01411 0.05644,-0.01411 z m 1.476021,1.981198 q -0.245533,0 -0.265289,-0.07902 l -0.09313,-0.364067 H 19.75798 l -0.08184,0.349956 q -0.01693,0.08749 -0.270934,0.08749 -0.135466,0 -0.200377,-0.01411 -0.06491,-0.01693 -0.06491,-0.0254 l 0.499533,-1.910643 q 0,-0.02258 0.386644,-0.02258 0.386644,0 0.386644,0.02258 l 0.488244,1.913465 q 0,0.01976 -0.129822,0.03104 -0.129822,0.01129 -0.206022,0.01129 z m -0.7366,-0.80151 h 0.296334 l -0.127,-0.5842 h -0.01693 z m 1.23049,0.629355 v -1.755421 q 0,-0.05927 0.285045,-0.05927 0.287866,0 0.287866,0.05927 v 1.382888 h 0.434622 q 0.0508,0 0.07055,0.132644 0.0085,0.06491 0.0085,0.132644 0,0.06773 -0.0085,0.138289 -0.02258,0.135467 -0.07338,0.135467 h -0.869244 q -0.06209,0 -0.09878,-0.0508 -0.03669,-0.0508 -0.03669,-0.115711 z m 1.227664,0 v -1.755421 q 0,-0.05927 0.285045,-0.05927 0.287866,0 0.287866,0.05927 v 1.382888 h 0.434622 q 0.0508,0 0.07055,0.132644 0.0085,0.06491 0.0085,0.132644 0,0.06773 -0.0085,0.138289 -0.02258,0.135467 -0.07338,0.135467 h -0.869244 q -0.06209,0 -0.09878,-0.0508 -0.03669,-0.0508 -0.03669,-0.115711 z m 2.173108,-1.024466 q 0.05362,0 0.05362,0.197555 0,0.05927 -0.01411,0.141111 -0.01129,0.07902 -0.04516,0.07902 h -0.358422 v 0.282222 h 0.519289 q 0.04798,0 0.06491,0.124178 0.0085,0.05362 0.0085,0.115711 0,0.05927 -0.01693,0.155222 -0.01693,0.09596 -0.05644,0.09596 h -0.9652 q -0.107244,0 -0.107244,-0.08749 v -1.814688 q 0,-0.07338 0.06491,-0.07338 h 1.010355 q 0.05927,0 0.05927,0.251177 0,0.248356 -0.05927,0.248356 h -0.522111 v 0.285044 z m 2.02071,1.128888 q 0,0.05927 -0.265289,0.05927 -0.265288,0 -0.287866,-0.04233 l -0.471311,-0.880533 v 0.877711 q 0,0.0508 -0.262466,0.0508 -0.259644,0 -0.259644,-0.0508 v -1.888065 q 0,-0.04233 0.222955,-0.04233 0.08749,0 0.2032,0.01693 0.118533,0.01411 0.143933,0.05644 l 0.451555,0.869244 v -0.886177 q 0,-0.05362 0.262467,-0.05362 0.262466,0 0.262466,0.05362 z"
       id="text43"
       inkscape:label="TEXT_FALLEN"
       aria-label="FALLEN" />
    <path
       style="font-weight:bold;font-size:2.82222px;font-family:'Lilita One';-inkscape-font-specification:'Lilita One Bold';fill:#fffff0;stroke-width:0.264583"
       d="m 6.9458736,121.99954 q -0.2455331,0 -0.2652887,-0.079 l -0.093133,-0.36407 h -0.448733 l -0.081844,0.34996 q -0.016933,0.0875 -0.2709331,0.0875 -0.1354666,0 -0.2003777,-0.0141 -0.064911,-0.0169 -0.064911,-0.0254 l 0.4995329,-1.91065 q 0,-0.0226 0.3866442,-0.0226 0.3866441,0 0.3866441,0.0226 l 0.4882441,1.91347 q 0,0.0198 -0.1298221,0.031 -0.1298221,0.0113 -0.2060221,0.0113 z m -0.7365994,-0.80151 h 0.2963331 l -0.1269999,-0.5842 h -0.016933 z m 2.181578,-1.12324 q 0,-0.0564 0.3047998,-0.0564 0.3076219,0 0.3076219,0.0564 v 1.2954 q 0,0.28786 -0.206022,0.47131 -0.2060221,0.18062 -0.5700885,0.18062 -0.3612442,0 -0.589844,-0.18627 -0.2257776,-0.18909 -0.2257776,-0.508 v -1.25024 q 0,-0.0565 0.3047998,-0.0565 0.307622,0 0.307622,0.0565 v 1.27282 q 0,0.0564 0.059267,0.0903 0.062089,0.0339 0.1298221,0.0339 0.067733,0 0.1213555,-0.031 0.056444,-0.031 0.056444,-0.0931 z m 1.8965328,0.0198 q 0.03387,-0.0847 0.352777,-0.0847 0.08184,0 0.200378,0.0141 0.121356,0.0113 0.121356,0.0226 l -0.479778,0.97649 0.496711,0.93416 q 0.0085,0.0141 -0.121356,0.0282 -0.129822,0.0113 -0.220133,0.0113 -0.358422,0 -0.392288,-0.096 l -0.211667,-0.53904 -0.1919108,0.55598 q -0.028222,0.079 -0.3612442,0.079 -0.081844,0 -0.2031998,-0.0113 -0.1213555,-0.0113 -0.1100666,-0.031 l 0.4402663,-0.97649 -0.4571996,-0.93134 q -0.00847,-0.0141 0.115711,-0.0254 0.1269999,-0.0141 0.2144887,-0.0141 0.3555997,0 0.3894664,0.1016 l 0.1947336,0.47414 z"
       id="text44"
       inkscape:label="TEXT_AUX"
       aria-label="AUX" />
    <path
       style="font-weight:bold;font-size:2.82222px;font-family:'Lilita One';-inkscape-font-specification:'Lilita One Bold';fill:#fffff0;stroke-width:0.264583"
       d="m 21.463161,53.10184 q -0.0085,-0.03105 0.285044,-0.03105 0.324556,0 0.333022,0.05362 l 0.138289,1.188155 0.299155,-1.202266 q 0.01411,-0.04233 0.220134,-0.04233 0.206022,0 0.220133,0.03951 l 0.293511,1.210732 0.163688,-1.199443 q 0.0056,-0.03104 0.129822,-0.04233 0.124178,-0.01129 0.200378,-0.01129 0.296333,0 0.287867,0.03951 l -0.341489,1.871132 q -0.01129,0.04233 -0.160867,0.06209 -0.149577,0.01975 -0.242711,0.01975 -0.349955,0 -0.366888,-0.07902 l -0.191911,-0.776111 -0.208844,0.773289 q -0.01129,0.0508 -0.197556,0.07338 -0.09596,0.0085 -0.191911,0.0085 l -0.180622,-0.0085 q -0.186266,-0.01976 -0.197555,-0.07055 z m 4.746972,1.950154 q -0.251178,0 -0.251178,-0.05645 l -0.05927,-1.13171 -0.344311,1.145821 q -0.01129,0.03387 -0.191911,0.03387 -0.180622,0 -0.186267,-0.03104 l -0.3556,-1.159933 -0.03951,1.126066 q -0.0028,0.04233 -0.107244,0.05927 -0.104422,0.01411 -0.174978,0.01411 -0.06773,0 -0.132644,-0.0085 -0.135467,-0.01976 -0.132644,-0.07055 l 0.06491,-1.834444 q 0,-0.06773 0.344311,-0.06773 0.1016,0 0.248355,0.01693 0.146755,0.01411 0.163689,0.05927 l 0.316088,0.888999 0.276578,-0.891821 q 0.0254,-0.07338 0.389466,-0.07338 0.104422,0 0.248356,0.01693 0.146755,0.01411 0.146755,0.05362 l 0.08184,1.851376 q 0,0.03104 -0.110067,0.04516 -0.110067,0.01411 -0.194733,0.01411 z"
       id="text45"
       inkscape:label="TEXT_WM"
       aria-label="WM" />
    <path
       style="font-weight:bold;font-size:2.82222px;font-family:'Lilita One';-inkscape-font-specification:'Lilita One Bold';fill:#fffff0;stroke-width:0.264583"
       d="m 5.235185,55.075982 q -0.3951108,0 -0.6462884,-0.259644 -0.2483554,-0.259644 -0.2483554,-0.756355 0,-0.499533 0.2511776,-0.756355 0.2539998,-0.256822 0.6519329,-0.256822 0.4007552,0 0.6462884,0.254 0.2455331,0.251177 0.2455331,0.764821 0,0.510822 -0.2511776,0.762 -0.2511776,0.248355 -0.6491106,0.248355 z m 0.00282,-1.48731 q -0.1354665,0 -0.2285998,0.124178 -0.090311,0.124178 -0.090311,0.349955 0,0.222956 0.087489,0.344311 0.087489,0.118533 0.2285998,0.118533 0.1439332,0 0.2314221,-0.121355 0.090311,-0.121356 0.090311,-0.347133 0,-0.225778 -0.093133,-0.347133 -0.090311,-0.121356 -0.2257781,-0.121356 z m 3.0987952,1.46191 q -0.2511776,0 -0.2511776,-0.05644 l -0.059267,-1.13171 -0.3443108,1.145821 q -0.011289,0.03387 -0.191911,0.03387 -0.1806221,0 -0.1862665,-0.03104 l -0.3555998,-1.159932 -0.039511,1.126066 q -0.00282,0.04233 -0.1072444,0.05927 -0.1044221,0.01411 -0.1749776,0.01411 -0.067733,0 -0.1326444,-0.0085 -0.1354666,-0.01976 -0.1326443,-0.07056 l 0.064911,-1.834443 q 0,-0.06773 0.3443109,-0.06773 0.1015999,0 0.2483553,0.01693 0.1467555,0.01411 0.1636888,0.05927 l 0.3160887,0.888999 0.2765775,-0.891822 q 0.0254,-0.07338 0.3894664,-0.07338 0.1044221,0 0.2483554,0.01693 0.1467554,0.01411 0.1467554,0.05362 l 0.081844,1.851377 q 0,0.03104 -0.1100666,0.04516 -0.1100666,0.01411 -0.1947332,0.01411 z"
       id="text46"
       inkscape:label="TEXT_OM"
       aria-label="OM" />
    <path
       style="font-weight:bold;font-size:2.82222px;font-family:'Lilita One';-inkscape-font-specification:'Lilita One Bold';fill:#fffff0;stroke-width:0.264583"
       d="m 14.551377,55.053404 q -0.245533,0 -0.265289,-0.07902 l -0.09313,-0.364066 h -0.448733 l -0.08185,0.349955 q -0.01693,0.08749 -0.270933,0.08749 -0.135466,0 -0.200377,-0.01411 -0.06491,-0.01693 -0.06491,-0.0254 l 0.499533,-1.910643 q 0,-0.02258 0.386644,-0.02258 0.386644,0 0.386644,0.02258 l 0.488244,1.913465 q 0,0.01976 -0.129822,0.03104 -0.129822,0.01129 -0.206022,0.01129 z m -0.7366,-0.80151 h 0.296333 l -0.127,-0.5842 h -0.01693 z m 3.234266,0.798688 q -0.251177,0 -0.251177,-0.05644 l -0.05927,-1.13171 -0.344311,1.145821 q -0.01129,0.03387 -0.191911,0.03387 -0.180622,0 -0.186266,-0.03104 l -0.3556,-1.159932 -0.03951,1.126066 q -0.0028,0.04233 -0.107244,0.05927 -0.104423,0.01411 -0.174978,0.01411 -0.06773,0 -0.132644,-0.0085 -0.135467,-0.01976 -0.132645,-0.07056 l 0.06491,-1.834443 q 0,-0.06773 0.344311,-0.06773 0.1016,0 0.248356,0.01693 0.146755,0.01411 0.163688,0.05927 l 0.316089,0.888999 0.276578,-0.891822 q 0.0254,-0.07338 0.389466,-0.07338 0.104422,0 0.248355,0.01693 0.146756,0.01411 0.146756,0.05362 l 0.08184,1.851377 q 0,0.03104 -0.110066,0.04516 -0.110067,0.01411 -0.194734,0.01411 z"
       id="text47"
       inkscape:label="TEXT_AM"
       aria-label="AM" />
    <path
       style="font-weight:bold;font-size:2.82222px;font-family:'Lilita One';-inkscape-font-specification:'Lilita One Bold';fill:#fffff0;stroke-width:0.264583"
       d="m 16.954102,72.277527 v -1.75542 q 0,-0.05927 0.285044,-0.05927 0.287867,0 0.287867,0.05927 v 1.382887 h 0.434622 q 0.0508,0 0.07055,0.132645 0.0085,0.06491 0.0085,0.132644 0,0.06773 -0.0085,0.138289 -0.02258,0.135466 -0.07338,0.135466 h -0.869243 q -0.06209,0 -0.09878,-0.0508 -0.03669,-0.0508 -0.03669,-0.115711 z m 1.442153,-0.31891 v -1.004711 h -0.200378 q -0.04798,0 -0.06773,-0.121355 -0.0085,-0.05927 -0.0085,-0.121356 0,-0.06209 0.0085,-0.121355 0.01976,-0.121356 0.06773,-0.121356 h 0.948266 q 0.04798,0 0.06491,0.121356 0.01129,0.05927 0.01129,0.121355 0,0.06209 -0.01129,0.121356 -0.01693,0.121355 -0.06491,0.121355 h -0.189088 v 1.004711 h 0.197555 q 0.04798,0 0.06773,0.121355 0.01129,0.05927 0.01129,0.121355 0,0.06209 -0.01129,0.121356 -0.01975,0.121355 -0.06773,0.121355 h -0.951088 q -0.04798,0 -0.06491,-0.121355 -0.01129,-0.05927 -0.01129,-0.121356 0,-0.06209 0.01129,-0.121355 0.01693,-0.121355 0.06491,-0.121355 z M 20.9673,72.38195 q 0,0.05927 -0.265289,0.05927 -0.265288,0 -0.287866,-0.04233 l -0.471311,-0.88054 v 0.877711 q 0,0.0508 -0.262466,0.0508 -0.259645,0 -0.259645,-0.0508 v -1.888066 q 0,-0.04233 0.222956,-0.04233 0.08749,0 0.2032,0.01693 0.118533,0.01411 0.143933,0.05644 l 0.451555,0.869244 v -0.886177 q 0,-0.05362 0.262466,-0.05362 0.262467,0 0.262467,0.05362 z m 1.467556,-2.125132 q 0.01411,-0.03104 0.05362,-0.03104 0.04233,0 0.08749,0.01976 0.104422,0.04798 0.135467,0.112889 0.01129,0.01976 0.01129,0.03669 0,0.01693 -0.0056,0.02822 l -1.317977,2.28882 q -0.01693,0.02822 -0.05927,0.02822 -0.04233,0 -0.08467,-0.01976 -0.107244,-0.0508 -0.138289,-0.112889 -0.0085,-0.01693 -0.0085,-0.03387 0,-0.01411 0.0085,-0.02822 z m 1.349021,0.996244 q 0.05362,0 0.05362,0.197555 0,0.05927 -0.01411,0.141111 -0.01129,0.07902 -0.04516,0.07902 H 23.419805 V 71.95297 H 23.9391 q 0.04798,0 0.06491,0.124178 0.0085,0.05362 0.0085,0.115711 0,0.05927 -0.01693,0.155222 -0.01693,0.09596 -0.05644,0.09596 h -0.9652 q -0.107244,0 -0.107244,-0.08749 v -1.814688 q 0,-0.07338 0.06491,-0.07338 h 1.010355 q 0.05927,0 0.05927,0.251178 0,0.248355 -0.05927,0.248355 H 23.41985 v 0.285045 z m 1.521177,-0.708378 q 0.03387,-0.08467 0.352778,-0.08467 0.08184,0 0.200377,0.01411 0.121356,0.01129 0.121356,0.02258 l -0.479778,0.976488 0.496711,0.934155 q 0.0085,0.01411 -0.121355,0.02822 -0.129823,0.01129 -0.220134,0.01129 -0.358422,0 -0.392288,-0.09596 l -0.211667,-0.539044 -0.191911,0.555977 q -0.02822,0.07902 -0.361244,0.07902 -0.08184,0 -0.2032,-0.01129 -0.121355,-0.01129 -0.110066,-0.03104 l 0.440266,-0.976488 -0.4572,-0.931332 q -0.0085,-0.01411 0.115711,-0.0254 0.127,-0.01411 0.214489,-0.01411 0.3556,0 0.389467,0.1016 l 0.194733,0.474133 z m 1.126068,1.904999 q -0.256822,0 -0.256822,-0.05644 V 70.56444 q 0,-0.09596 0.08749,-0.09596 h 0.496711 q 0.417689,0 0.601133,0.172156 0.186267,0.172155 0.186267,0.499533 0,0.270933 -0.174978,0.49671 -0.08749,0.112889 -0.256822,0.180623 -0.169333,0.06773 -0.395111,0.06773 v 0.505177 q 0,0.03387 -0.107244,0.04798 -0.104422,0.01129 -0.180622,0.01129 z m 0.287866,-1.490132 v 0.44591 h 0.03669 q 0.09878,0 0.166511,-0.06209 0.06773,-0.06209 0.06773,-0.174978 0,-0.112889 -0.04798,-0.160867 -0.04515,-0.04798 -0.163688,-0.04798 z"
       id="text48"
       inkscape:label="TEXT_LIN_EXP"
       aria-label="LIN/EXP" />
    <path
       style="font-weight:bold;font-size:4.93889px;font-family:'Lilita One';-inkscape-font-specification:'Lilita One Bold';fill:#fffff0;stroke-width:0.264583"
       d="m 5.5642622,9.4865509 q -0.449439,0 -0.449439,-0.098778 V 6.1873724 q 0,-0.1679223 0.1531056,-0.1679223 h 0.8692446 q 0.7309558,0 1.0519836,0.3012723 0.3259667,0.3012723 0.3259667,0.8741836 0,0.4741334 -0.3062111,0.8692446 Q 7.055807,8.2617062 6.7594736,8.3802396 6.4631402,8.4987729 6.068029,8.4987729 v 0.8840613 q 0,0.059267 -0.1876778,0.083961 -0.182739,0.019756 -0.316089,0.019756 z M 6.068029,6.878817 v 0.7803446 h 0.064206 q 0.1728611,0 0.2913945,-0.1086556 0.1185333,-0.1086555 0.1185333,-0.3062111 0,-0.1975556 -0.083961,-0.2815168 Q 6.3791791,6.878817 6.1717457,6.878817 Z m 4.568472,2.513895 q 0,0.083961 -0.498828,0.083961 -0.4988281,0 -0.4988281,-0.083961 V 8.2567673 H 8.9474003 V 9.392712 q 0,0.083961 -0.4988279,0.083961 -0.4988279,0 -0.4988279,-0.083961 V 6.1182279 q 0,-0.1037166 0.4988279,-0.1037166 0.4988279,0 0.4988279,0.1037166 V 7.2788671 H 9.6388449 V 6.1281057 q 0,-0.069144 0.2469445,-0.098778 0.1284116,-0.00988 0.2518836,-0.00988 l 0.251883,0.00988 q 0.246945,0.029633 0.246945,0.098778 z m 1.960735,0.13335 q -0.691445,0 -1.131006,-0.4543779 -0.434622,-0.4543778 -0.434622,-1.3236225 0,-0.8741835 0.439561,-1.3236225 0.4445,-0.449439 1.140883,-0.449439 0.701323,0 1.131006,0.4445001 0.429684,0.4395612 0.429684,1.3384392 0,0.8939391 -0.439562,1.3335003 -0.439561,0.4346223 -1.135944,0.4346223 z m 0.0049,-2.602795 q -0.237067,0 -0.40005,0.2173112 -0.158045,0.2173111 -0.158045,0.6124223 0,0.3901723 0.153106,0.6025446 0.153105,0.2074334 0.40005,0.2074334 0.251883,0 0.404989,-0.2123723 0.158044,-0.2123723 0.158044,-0.6074835 0,-0.3951112 -0.162983,-0.6074834 Q 12.839241,6.923267 12.602175,6.923267 Z m 3.570813,0.4691946 q 0.09384,0 0.09384,0.3457223 0,0.1037166 -0.02469,0.2469445 -0.01976,0.1382889 -0.07902,0.1382889 H 15.53584 v 0.493889 h 0.908755 q 0.08396,0 0.113595,0.2173111 0.01482,0.093839 0.01482,0.2024945 0,0.1037167 -0.02963,0.271639 -0.02963,0.1679222 -0.09878,0.1679222 h -1.6891 q -0.187678,0 -0.187678,-0.1531056 V 6.1478613 q 0,-0.1284112 0.113595,-0.1284112 h 1.768122 q 0.103717,0 0.103717,0.4395612 0,0.4346224 -0.103717,0.4346224 h -0.913694 v 0.4988279 z m 3.536246,1.9755559 q 0,0.1037167 -0.464256,0.1037167 -0.464256,0 -0.503767,-0.074083 L 17.916417,7.8567172 V 9.392712 q 0,0.0889 -0.459317,0.0889 -0.454378,0 -0.454378,-0.0889 V 6.0885946 q 0,-0.074083 0.390172,-0.074083 0.153106,0 0.3556,0.029633 0.207434,0.024694 0.251884,0.098778 L 18.7906,7.6641005 V 6.113289 q 0,-0.093839 0.459317,-0.093839 0.459317,0 0.459317,0.093839 z M 20.529092,8.627184 V 6.8689392 h -0.350661 q -0.08396,0 -0.118534,-0.2123723 -0.01482,-0.1037166 -0.01482,-0.2123722 0,-0.1086556 0.01482,-0.2123723 0.03457,-0.2123723 0.118534,-0.2123723 h 1.659467 q 0.08396,0 0.113594,0.2123723 0.01976,0.1037167 0.01976,0.2123723 0,0.1086556 -0.01976,0.2123722 -0.02963,0.2123723 -0.113594,0.2123723 H 21.506992 V 8.627184 h 0.345722 q 0.08396,0 0.118534,0.2123723 0.01975,0.1037167 0.01975,0.2123723 0,0.1086556 -0.01975,0.2123723 -0.03457,0.2123722 -0.118534,0.2123722 h -1.664406 q -0.08396,0 -0.113594,-0.2123722 -0.01976,-0.1037167 -0.01976,-0.2123723 0,-0.1086556 0.01976,-0.2123723 0.02963,-0.2123723 0.113594,-0.2123723 z m 3.625149,-2.4743838 q 0.05927,-0.1481667 0.617361,-0.1481667 0.143228,0 0.350661,0.024694 0.212373,0.019756 0.212373,0.039511 l -0.839612,1.708856 0.869245,1.6347726 q 0.01482,0.024694 -0.212372,0.049389 -0.227189,0.019756 -0.385234,0.019756 -0.627239,0 -0.686505,-0.1679222 l -0.370417,-0.943328 -0.335845,0.9729613 q -0.04939,0.1382889 -0.632178,0.1382889 -0.143227,0 -0.3556,-0.019756 -0.212372,-0.019756 -0.192616,-0.054328 L 22.963969,7.6986727 22.163868,6.068839 q -0.01482,-0.024694 0.202495,-0.04445 0.22225,-0.024694 0.375355,-0.024694 0.622301,0 0.681567,0.1778 l 0.340784,0.8297335 z"
       id="text49"
       inkscape:label="TEXT_LOGO"
       aria-label="PHOENIX" />
  </g>
  <g
     inkscape:groupmode="layer"
     id="layer1"
     inkscape:label="components"
     style="display:none">
    <circle
       style="fill:#ff0000;fill-opacity:1;stroke-width:0.288914"
       id="circle9"
       cx="8.25"
       cy="17.749695"
       inkscape:label="RISE"
       r="4" />
    <circle
       style="fill:#ff0000;fill-opacity:1;stroke-width:0.288914"
       id="circle6"
       cx="22.25"
       cy="17.749695"
       inkscape:label="FALL"
       r="4" />
    <circle
       style="display:inline;fill:#0000ff;fill-opacity:1;stroke-width:0.288914"
       id="circle7"
       cx="8.25"
       cy="113.75"
       inkscape:label="AUX"
       r="4" />
    <circle
       style="fill:#00ff00;fill-opacity:1;stroke-width:0.288914"
       id="circle12"
       cx="8.25"
       cy="34.268539"
       inkscape:label="RISE"
       r="4" />
    <circle
       style="fill:#00ff00;fill-opacity:1;stroke-width:0.288914"
       id="circle13"
       cx="8.5101328"
       cy="64.235413"
       inkscape:label="INVERT"
       r="4" />
    <circle
       style="fill:#0000ff;fill-opacity:1;stroke-width:0.288914"
       id="circle15"
       cx="8.25"
       cy="80.75"
       inkscape:label="RISEN"
       r="4" />
    <circle
       style="fill:#00ff00;fill-opacity:1;stroke-width:0.288914"
       id="circle16"
       cx="8.25"
       cy="97.25"
       inkscape:label="MAIN"
       r="4" />
    <circle
       style="fill:#ff0000;fill-opacity:1;stroke-width:0.144457"
       id="circle27"
       cx="8.25"
       cy="26.009117"
       inkscape:label="RISE_CV"
       r="2" />
    <circle
       style="fill:#ff0000;fill-opacity:1;stroke-width:0.144457"
       id="circle28"
       cx="22.25"
       cy="26.009117"
       inkscape:label="FALL_CV"
       r="2" />
    <circle
       style="fill:#00ff00;fill-opacity:1;stroke-width:0.288914"
       id="circle29"
       cx="22.25"
       cy="34.273479"
       inkscape:label="FALL"
       r="4" />
    <circle
       style="fill:#ff0000;fill-opacity:1;stroke-width:0.144457"
       id="circle30"
       cx="6.4910717"
       cy="49.037384"
       inkscape:label="OM"
       r="2" />
    <circle
       style="fill:#ff0000;fill-opacity:1;stroke-width:0.144457"
       id="circle31"
       cx="15.24"
       cy="49.037384"
       inkscape:label="AM"
       r="2" />
    <circle
       style="fill:#ff0000;fill-opacity:1;stroke-width:0.144457"
       id="circle32"
       cx="23.988928"
       cy="49.037384"
       inkscape:label="WM"
       r="2" />
    <circle
       style="fill:#ff0000;fill-opacity:1;stroke-width:0.288914"
       id="circle33"
       cx="22.25"
       cy="64.25"
       inkscape:label="LIN_EXP"
       r="4" />
    <circle
       style="fill:#0000ff;fill-opacity:1;stroke-width:0.288914"
       id="circle34"
       cx="22.25"
       cy="80.75"
       inkscape:label="FALLEN"
       r="4" />
    <circle
       style="fill:#00ff00;fill-opacity:1;stroke-width:0.288914"
       id="circle35"
       cx="22.25"
       cy="97.25"
       inkscape:label="HIT"
       r="4" />
    <circle
       style="display:inline;fill:#0000ff;fill-opacity:1;stroke-width:0.288914"
       id="circle36"
       cx="22.25"
       cy="113.75"
       inkscape:label="MAIN"
       r="4" />
  </g>
</svg>
