<?xml version="1.0" encoding="UTF-8" standalone="no"?>
<!-- Created with Inkscape (http://www.inkscape.org/) -->

<svg
   width="15.24mm"
   height="128.5mm"
   viewBox="0 0 15.24 128.5"
   version="1.1"
   id="svg1"
   inkscape:version="1.3.2 (091e20e, 2023-11-25)"
   sodipodi:docname="RandomWalkLFO.svg"
   xmlns:inkscape="http://www.inkscape.org/namespaces/inkscape"
   xmlns:sodipodi="http://sodipodi.sourceforge.net/DTD/sodipodi-0.dtd"
   xmlns="http://www.w3.org/2000/svg"
   xmlns:svg="http://www.w3.org/2000/svg">
  <sodipodi:namedview
     id="namedview1"
     pagecolor="#ffffff"
     bordercolor="#cccccc"
     borderopacity="1"
     inkscape:showpageshadow="0"
     inkscape:pageopacity="1"
     inkscape:pagecheckerboard="0"
     inkscape:deskcolor="#d1d1d1"
     inkscape:document-units="mm"
     inkscape:zoom="1.5591899"
     inkscape:cx="-5.451549"
     inkscape:cy="341.20283"
     inkscape:window-width="1512"
     inkscape:window-height="857"
     inkscape:window-x="512"
     inkscape:window-y="1478"
     inkscape:window-maximized="0"
     inkscape:current-layer="layer2" />
  <defs
     id="defs1" />
  <rect
     style="fill:#1a1a1a;stroke-width:0.264583"
     id="rect1"
     width="15.24"
     height="128.5"
     x="0"
     y="0"
     ry="0"
     inkscape:label="BG" />
  <g
     inkscape:groupmode="layer"
     id="layer2"
     inkscape:label="components">
    <circle
       style="fill:#0000ff;stroke-width:0.266141"
       id="circle14"
       cx="7.6199975"
       cy="89.5"
       inkscape:label="CV"
       r="3.5" />
    <circle
       style="fill:#00ff00;stroke-width:0.266141"
       id="circle15"
       cx="7.6199975"
       cy="108.5"
       inkscape:label="RESET"
       r="3.5" />
    <circle
       style="fill:#ff0000;stroke-width:0.266141"
       id="circle17"
       cx="7.6199999"
       cy="19.5"
       inkscape:label="RATE"
       r="3.5" />
    <circle
       style="fill:#ff0000;stroke-width:0.266141"
       id="circle19"
       cx="7.6199975"
       cy="40.5"
       inkscape:label="VARIANT"
       r="3.5" />
    <path
       d="M 2.3269021,50.060226 1.8076117,47.999998 H 2.1716794 L 2.484947,49.34338 q 0.0254,0.09878 0.045156,0.214489 0.022578,0.11289 0.033867,0.180623 0.011289,-0.06773 0.031045,-0.180623 0.022578,-0.115711 0.047978,-0.217311 l 0.3019786,-1.34056 h 0.3584232 l -0.5192903,2.060228 z m 1.1740488,0 0.5192903,-2.060228 h 0.454379 l 0.5221126,2.060228 H 4.6354874 L 4.5225982,49.560692 H 3.9750855 L 3.8621963,50.060226 Z M 4.0399968,49.272824 H 4.4576869 L 4.3335087,48.719667 q -0.031045,-0.138289 -0.053622,-0.248356 -0.022578,-0.112889 -0.031045,-0.163689 -0.00847,0.0508 -0.031045,0.163689 -0.022578,0.110067 -0.053622,0.245534 z m 1.2728268,0.787402 v -2.060228 h 0.649113 q 0.2060228,0 0.3556009,0.0762 0.1524005,0.0762 0.2370674,0.214489 0.084667,0.135467 0.084667,0.321734 0,0.206023 -0.1016003,0.361246 -0.1016003,0.1524 -0.2737563,0.217312 l 0.4035789,0.869246 H 6.2808486 L 5.9196031,49.24178 H 5.6627802 v 0.818446 z m 0.3499566,-1.128892 h 0.2991564 q 0.1495781,0 0.2342451,-0.08184 0.084667,-0.08185 0.084667,-0.225779 0,-0.143933 -0.087489,-0.2286 -0.084667,-0.08467 -0.2314228,-0.08467 H 5.6627802 Z m 1.3800713,1.128892 V 49.741314 H 7.4577193 V 48.31891 H 7.0428515 V 47.999998 H 8.2281881 V 48.31891 H 7.8133203 v 1.422404 h 0.4148678 v 0.318912 z m 1.5381167,0 0.5192903,-2.060228 H 9.5546376 L 10.07675,50.060226 H 9.7155047 L 9.6026155,49.560692 H 9.0551028 L 8.9422136,50.060226 Z M 9.1200141,49.272824 H 9.5377042 L 9.4135261,48.719667 q -0.031045,-0.138289 -0.053622,-0.248356 -0.022578,-0.112889 -0.031045,-0.163689 -0.00847,0.0508 -0.031045,0.163689 -0.022578,0.110067 -0.053622,0.245534 z m 1.2587159,0.787402 v -2.060228 h 0.431801 l 0.572913,1.665116 q -0.0085,-0.09031 -0.01693,-0.211667 -0.0085,-0.124178 -0.01693,-0.251179 -0.0056,-0.127 -0.0056,-0.225778 v -0.976492 h 0.321734 v 2.060228 h -0.431801 l -0.567268,-1.665115 q 0.0056,0.08184 0.01411,0.197556 0.0085,0.115711 0.01411,0.237067 0.0056,0.121356 0.0056,0.222956 v 1.007536 z m 2.159006,0 V 48.31891 H 11.99869 v -0.318912 h 1.433693 v 0.318912 h -0.539046 v 1.741316 z"
       id="text21"
       style="font-weight:bold;font-size:2.82223px;font-family:'JetBrains Mono';-inkscape-font-specification:'JetBrains Mono Bold';fill:#f9f9f9;stroke-width:0.264583"
       aria-label="VARIANT" />
  </g>
  <path
     style="font-weight:bold;font-size:2.82222px;font-family:'JetBrains Mono';-inkscape-font-specification:'JetBrains Mono Bold';fill:#e6e6e6;stroke-width:0.264583"
     d="m 3.615266,118.08856 v -2.06022 h 0.6491106 q 0.2060221,0 0.3555998,0.0762 0.1523998,0.0762 0.2370664,0.21449 0.084667,0.13547 0.084667,0.32173 0,0.20602 -0.1016,0.36125 -0.1015999,0.1524 -0.2737553,0.21731 l 0.4035775,0.86924 H 4.5832875 l -0.3612442,-0.81844 h -0.256822 v 0.81844 z m 0.3499553,-1.12889 h 0.2991553 q 0.1495777,0 0.2342443,-0.0818 0.084667,-0.0819 0.084667,-0.22578 0,-0.14393 -0.087489,-0.2286 -0.084667,-0.0847 -0.2314221,-0.0847 H 3.9652213 Z m 1.3744223,1.12889 v -2.06022 H 6.575776 v 0.31044 H 5.6867767 v 0.53623 h 0.7902216 v 0.29915 H 5.6867767 v 0.60396 H 6.575776 v 0.31044 z m 2.3001104,0.0282 q -0.2088442,0 -0.3668886,-0.0734 -0.1552221,-0.0734 -0.2427109,-0.20885 -0.084667,-0.13829 -0.084667,-0.32738 h 0.3471331 q 0,0.13829 0.093133,0.22014 0.095956,0.0818 0.2539998,0.0818 0.1523999,0 0.2398888,-0.079 0.090311,-0.0819 0.090311,-0.21731 0,-0.1016 -0.059267,-0.1778 -0.056444,-0.079 -0.1636888,-0.10725 l -0.2765776,-0.0706 q -0.2229553,-0.0564 -0.3527775,-0.21167 -0.1298221,-0.15522 -0.1298221,-0.36971 0,-0.26247 0.1721554,-0.41769 Q 7.3321311,116 7.6199975,116 q 0.1947332,0 0.3386664,0.0705 0.1467555,0.0706 0.2257776,0.20038 0.079022,0.127 0.079022,0.29916 H 7.9191538 q 0,-0.11854 -0.081844,-0.19191 -0.081844,-0.0734 -0.217311,-0.0734 -0.1326443,0 -0.2116665,0.0734 -0.0762,0.0705 -0.0762,0.18626 0,0.096 0.053622,0.15805 0.056444,0.0621 0.1552221,0.0903 l 0.2850443,0.0705 q 0.2285998,0.0564 0.3584219,0.22578 0.1326444,0.16933 0.1326444,0.40358 0,0.18344 -0.084667,0.31891 -0.081844,0.13547 -0.2342443,0.21167 -0.1523999,0.0734 -0.358422,0.0734 z m 1.0865559,-0.0282 v -2.06022 h 1.2361324 v 0.31044 H 9.0734429 v 0.53623 h 0.7902217 v 0.29915 H 9.0734429 v 0.60396 h 0.8889994 v 0.31044 z m 2.1138441,0 v -1.74131 H 10.30111 v -0.31891 h 1.433688 v 0.31891 h -0.539044 v 1.74131 z"
     id="text16"
     inkscape:label="RESET_TEXT"
     aria-label="RESET" />
  <path
     d="m 5.8899695,99.11667 q -0.2963342,0 -0.4713125,-0.16933 Q 5.246501,98.778 5.246501,98.47885 v -0.84103 q 0,-0.29915 0.172156,-0.46849 Q 5.5936353,97 5.8899695,97 q 0.2963341,0 0.4684902,0.16933 0.1749782,0.16934 0.1749782,0.46567 v 0.84385 q 0,0.29915 -0.1749782,0.46849 -0.1721561,0.16933 -0.4684902,0.16933 z m 0,-0.31044 q 0.1439337,0 0.2173117,-0.0762 0.073378,-0.079 0.073378,-0.22296 V 97.6096 q 0,-0.14393 -0.073378,-0.22013 -0.073378,-0.079 -0.2173117,-0.079 -0.1439338,0 -0.2173118,0.079 -0.073378,0.0762 -0.073378,0.22013 v 0.89747 q 0,0.14393 0.073378,0.22296 0.073378,0.0762 0.2173118,0.0762 z m 1.6933391,0.31044 q -0.3019786,0 -0.4741347,-0.16369 -0.1693338,-0.16651 -0.1693338,-0.45155 v -1.47321 h 0.355601 v 1.47038 q 0,0.14676 0.073378,0.2286 0.073378,0.0819 0.2144895,0.0819 0.1382893,0 0.2116672,-0.0819 0.0762,-0.0818 0.0762,-0.2286 v -1.47038 h 0.355601 v 1.47321 q 0,0.28504 -0.1693338,0.45155 -0.1693336,0.16369 -0.4741344,0.16369 z m 1.5155386,-0.0282 v -1.74132 h -0.539046 v -0.31891 h 1.4336929 v 0.31891 H 9.4544482 v 1.74132 z"
     id="text17"
     style="font-weight:bold;font-size:2.82223px;font-family:'JetBrains Mono';-inkscape-font-specification:'JetBrains Mono Bold';fill:#ffffff;stroke-width:0.264583"
     aria-label="OUT" />
  <path
     d="M 4.4464093,29.060221 V 27 h 0.6491106 q 0.2060221,0 0.3555997,0.0762 0.1523999,0.0762 0.2370665,0.214489 0.084667,0.135466 0.084667,0.321733 0,0.206022 -0.1015999,0.361244 -0.1015999,0.1524 -0.2737554,0.217311 l 0.4035775,0.869244 H 5.4144308 L 5.0531866,28.241777 h -0.256822 v 0.818444 z m 0.3499553,-1.128888 h 0.2991553 q 0.1495777,0 0.2342443,-0.08184 0.084667,-0.08184 0.084667,-0.225777 0,-0.143934 -0.087489,-0.2286 -0.084667,-0.08467 -0.231422,-0.08467 H 4.7963646 Z M 6.0212092,29.060221 6.5404977,27 h 0.4543774 l 0.5221107,2.060221 H 7.1557416 L 7.0428528,28.560688 H 6.4953421 l -0.1128888,0.499533 z m 0.539044,-0.7874 H 6.9779418 L 6.8537641,27.719666 q -0.031044,-0.138289 -0.053622,-0.248355 -0.022578,-0.112889 -0.031044,-0.163689 -0.00847,0.0508 -0.031044,0.163689 -0.022578,0.110066 -0.053622,0.245533 z m 1.7243776,0.7874 v -1.74131 H 7.7455867 V 27 h 1.4336878 v 0.318911 h -0.539044 v 1.74131 z m 1.2728223,0 V 27 h 1.2361329 v 0.310444 H 9.9045862 v 0.536222 h 0.7902218 v 0.299155 H 9.9045862 v 0.603956 h 0.8889998 v 0.310444 z"
     id="text20"
     style="font-weight:bold;font-size:2.82222px;font-family:'JetBrains Mono';-inkscape-font-specification:'JetBrains Mono Bold';fill:#f9f9f9;stroke-width:0.264583"
     aria-label="RATE" />
</svg>
