<?xml version="1.0" encoding="UTF-8" standalone="no"?>
<!-- Created with Inkscape (http://www.inkscape.org/) -->

<svg
   width="15.24mm"
   height="128.5mm"
   viewBox="0 0 15.24 128.5"
   version="1.1"
   id="svg1"
   inkscape:version="1.3.2 (091e20e, 2023-11-25)"
   sodipodi:docname="RandomWalkLFO.svg"
   xmlns:inkscape="http://www.inkscape.org/namespaces/inkscape"
   xmlns:sodipodi="http://sodipodi.sourceforge.net/DTD/sodipodi-0.dtd"
   xmlns="http://www.w3.org/2000/svg"
   xmlns:svg="http://www.w3.org/2000/svg">
  <sodipodi:namedview
     id="namedview1"
     pagecolor="#ffffff"
     bordercolor="#cccccc"
     borderopacity="1"
     inkscape:showpageshadow="0"
     inkscape:pageopacity="1"
     inkscape:pagecheckerboard="0"
     inkscape:deskcolor="#d1d1d1"
     inkscape:document-units="mm"
     inkscape:zoom="1.0992724"
     inkscape:cx="-21.377776"
     inkscape:cy="214.68745"
     inkscape:window-width="1512"
     inkscape:window-height="859"
     inkscape:window-x="512"
     inkscape:window-y="1478"
     inkscape:window-maximized="0"
     inkscape:current-layer="svg1" />
  <defs
     id="defs1" />
  <rect
     style="fill:#1a1a1a;stroke-width:0.264583"
     id="rect1"
     width="15.24"
     height="128.5"
     x="0"
     y="0"
     ry="0"
     inkscape:label="BG" />
  <g
     inkscape:groupmode="layer"
     id="layer2"
     inkscape:label="components">
    <circle
       style="fill:#0000ff;stroke-width:0.266141"
       id="circle14"
       cx="7.6199999"
       cy="101.5"
       inkscape:label="CV"
       r="3.5" />
    <circle
       style="fill:#00ff00;stroke-width:0.266141"
       id="circle15"
       cx="7.6199999"
       cy="114.5"
       inkscape:label="RESET"
       r="3.5" />
    <circle
       style="fill:#ff0000;stroke-width:0.266141"
       id="circle17"
       cx="7.6199999"
       cy="11.5"
       inkscape:label="RATE"
       r="3.5" />
    <circle
       style="fill:#ff0000;stroke-width:0.266141"
       id="circle19"
       cx="7.6199999"
       cy="25.927"
       inkscape:label="VARIANT"
       r="3.5" />
  </g>
  <path
     style="font-weight:bold;font-size:2.82222px;font-family:'JetBrains Mono';-inkscape-font-specification:'JetBrains Mono Bold';fill:#e6e6e6;stroke-width:0.264583"
     d="m 3.5602339,122.08856 v -2.06022 h 0.6491106 q 0.2060221,0 0.3555998,0.0762 0.1523998,0.0762 0.2370664,0.21449 0.084667,0.13547 0.084667,0.32173 0,0.20602 -0.1016,0.36125 -0.1015999,0.1524 -0.2737553,0.21731 l 0.4035775,0.86924 H 4.5282554 l -0.3612442,-0.81844 h -0.256822 v 0.81844 z m 0.3499553,-1.12889 h 0.2991553 q 0.1495777,0 0.2342443,-0.0818 0.084667,-0.0819 0.084667,-0.22578 0,-0.14393 -0.087489,-0.2286 -0.084667,-0.0847 -0.2314221,-0.0847 H 3.9101892 Z m 1.3744223,1.12889 v -2.06022 h 1.2361324 v 0.31044 H 5.6317446 v 0.53623 h 0.7902216 v 0.29915 H 5.6317446 v 0.60396 h 0.8889993 v 0.31044 z m 2.3001104,0.0282 q -0.2088442,0 -0.3668886,-0.0734 -0.1552221,-0.0734 -0.2427109,-0.20885 -0.084667,-0.13829 -0.084667,-0.32738 h 0.3471331 q 0,0.13829 0.093133,0.22014 0.095956,0.0818 0.2539998,0.0818 0.1523999,0 0.2398888,-0.079 0.090311,-0.0819 0.090311,-0.21731 0,-0.1016 -0.059267,-0.1778 -0.056444,-0.079 -0.1636888,-0.10725 l -0.2765776,-0.0706 q -0.2229553,-0.0564 -0.3527775,-0.21167 -0.1298221,-0.15522 -0.1298221,-0.36971 0,-0.26247 0.1721554,-0.41769 Q 7.277099,120 7.5649654,120 q 0.1947332,0 0.3386664,0.0705 0.1467555,0.0706 0.2257776,0.20038 0.079022,0.127 0.079022,0.29916 H 7.8641217 q 0,-0.11854 -0.081844,-0.19191 -0.081844,-0.0734 -0.217311,-0.0734 -0.1326443,0 -0.2116665,0.0734 -0.0762,0.0705 -0.0762,0.18626 0,0.096 0.053622,0.15805 0.056444,0.0621 0.1552221,0.0903 l 0.2850443,0.0705 q 0.2285998,0.0564 0.3584219,0.22578 0.1326444,0.16933 0.1326444,0.40358 0,0.18344 -0.084667,0.31891 -0.081844,0.13547 -0.2342443,0.21167 -0.1523999,0.0734 -0.358422,0.0734 z m 1.0865559,-0.0282 v -2.06022 h 1.2361324 v 0.31044 H 9.0184108 v 0.53623 h 0.7902217 v 0.29915 H 9.0184108 v 0.60396 h 0.8889994 v 0.31044 z m 2.1138442,0 v -1.74131 h -0.539044 v -0.31891 h 1.433688 v 0.31891 h -0.539044 v 1.74131 z"
     id="text16"
     inkscape:label="RESET_TEXT"
     aria-label="RESET" />
  <path
     d="m 5.8899716,109 q -0.2963342,0 -0.4713125,-0.16933 -0.172156,-0.16934 -0.172156,-0.46849 v -0.84103 q 0,-0.29915 0.172156,-0.46849 0.1749783,-0.16933 0.4713125,-0.16933 0.2963341,0 0.4684902,0.16933 0.1749782,0.16934 0.1749782,0.46567 v 0.84385 q 0,0.29915 -0.1749782,0.46849 Q 6.1863057,109 5.8899716,109 Z m 0,-0.31044 q 0.1439337,0 0.2173117,-0.0762 0.073378,-0.079 0.073378,-0.22296 v -0.89747 q 0,-0.14393 -0.073378,-0.22013 -0.073378,-0.079 -0.2173117,-0.079 -0.1439338,0 -0.2173118,0.079 -0.073378,0.0762 -0.073378,0.22013 v 0.89747 q 0,0.14393 0.073378,0.22296 0.073378,0.0762 0.2173118,0.0762 z M 7.5833107,109 Q 7.2813321,109 7.109176,108.83631 6.9398422,108.6698 6.9398422,108.38476 v -1.47321 h 0.355601 v 1.47038 q 0,0.14676 0.073378,0.2286 0.073378,0.0819 0.2144895,0.0819 0.1382893,0 0.2116672,-0.0819 0.0762,-0.0818 0.0762,-0.2286 v -1.47038 h 0.355601 v 1.47321 q 0,0.28504 -0.1693338,0.45155 Q 7.8881115,109 7.5833107,109 Z m 1.5155386,-0.0282 v -1.74132 h -0.539046 v -0.31891 h 1.4336929 v 0.31891 H 9.4544503 v 1.74132 z"
     id="text17"
     style="font-weight:bold;font-size:2.82223px;font-family:'JetBrains Mono';-inkscape-font-specification:'JetBrains Mono Bold';fill:#ffffff;stroke-width:0.264583"
     aria-label="OUT" />
  <path
     d="m 4.2530757,17.999992 q -0.208845,0 -0.3668899,-0.07338 Q 3.7309631,17.853232 3.643474,17.717769 3.558807,17.579479 3.558807,17.39039 h 0.3471344 q 0,0.138289 0.093134,0.220134 0.095956,0.08185 0.2540007,0.08185 0.1524004,0 0.2398896,-0.07902 0.090311,-0.08184 0.090311,-0.217312 0,-0.1016 -0.059267,-0.1778 -0.056445,-0.07902 -0.1636893,-0.107245 L 4.0837419,17.040433 Q 3.8607857,16.983989 3.7309631,16.828766 3.6011406,16.673544 3.6011406,16.459053 q 0,-0.262467 0.172156,-0.41769 0.172156,-0.158045 0.4600235,-0.158045 0.1947339,0 0.3386676,0.07056 0.146756,0.07056 0.2257784,0.200378 0.079023,0.127001 0.079023,0.299157 H 4.5324765 q 0,-0.118534 -0.081845,-0.191912 -0.081845,-0.07338 -0.2173117,-0.07338 -0.1326448,0 -0.2116673,0.07338 -0.0762,0.07056 -0.0762,0.186267 0,0.09596 0.053622,0.158045 0.056445,0.06209 0.1552227,0.09031 l 0.2850452,0.07056 q 0.2286006,0.05644 0.3584232,0.225779 0.1326448,0.169333 0.1326448,0.403578 0,0.183445 -0.084667,0.318912 Q 4.7638984,17.85042 4.6114983,17.92662 4.4590979,18 4.2530751,18 Z m 1.0555151,-0.02822 v -2.060229 h 0.6858019 q 0.2060228,0 0.3584233,0.07902 0.1552226,0.07902 0.2398895,0.222956 0.084667,0.141112 0.084667,0.333023 0,0.191913 -0.084667,0.335847 -0.084667,0.141111 -0.2398895,0.220134 -0.1524005,0.07902 -0.3584233,0.07902 H 5.6613696 v 0.790224 z m 0.3527788,-1.100669 h 0.3330231 q 0.1495782,0 0.2370674,-0.09031 0.087489,-0.09031 0.087489,-0.234246 0,-0.143934 -0.087489,-0.234245 -0.087489,-0.09031 -0.2370674,-0.09031 H 5.6613696 Z m 1.3716049,1.100669 v -2.060229 h 1.2361367 v 0.310446 H 7.3801088 v 0.536224 H 8.1703332 V 17.05737 H 7.3801088 v 0.603957 h 0.8890024 v 0.310445 z m 1.6933388,0 v -2.060229 h 1.2361368 v 0.310446 H 9.0734476 v 0.536224 H 9.8636721 V 17.05737 H 9.0734476 v 0.603957 h 0.8890025 v 0.310445 z m 1.6566507,0 v -2.060229 h 0.612424 q 0.208845,0 0.361246,0.08185 0.155222,0.07902 0.239889,0.222956 0.08467,0.143934 0.08467,0.338668 v 0.77047 q 0,0.194734 -0.08467,0.34149 -0.08467,0.143933 -0.239889,0.225778 -0.152401,0.07902 -0.361246,0.07902 z m 0.352779,-0.316089 h 0.259645 q 0.152401,0 0.242712,-0.08749 0.09031,-0.09031 0.09031,-0.242712 v -0.77047 q 0,-0.149578 -0.09031,-0.237067 -0.09031,-0.09031 -0.242712,-0.09031 h -0.259645 z"
     id="text18"
     style="font-weight:bold;font-size:2.82223px;font-family:'JetBrains Mono';-inkscape-font-specification:'JetBrains Mono Bold';fill:#f9f9f9;stroke-width:0.264583"
     aria-label="SPEED" />
  <path
     d="M 2.3269042,32.464512 1.8076139,30.404284 h 0.3640676 l 0.3132676,1.343382 q 0.0254,0.09878 0.045156,0.214489 0.022578,0.11289 0.033867,0.180623 0.011289,-0.06773 0.031045,-0.180623 0.022578,-0.115711 0.047978,-0.217311 l 0.3019786,-1.34056 h 0.3584232 l -0.5192903,2.060228 z m 1.1740488,0 0.5192903,-2.060228 h 0.4543791 l 0.5221125,2.060228 H 4.6354895 L 4.5226003,31.964978 H 3.9750876 L 3.8621984,32.464512 Z M 4.0399989,31.67711 H 4.457689 L 4.3335109,31.123953 q -0.031045,-0.138289 -0.053622,-0.248356 -0.022578,-0.112889 -0.031045,-0.16369 -0.00847,0.0508 -0.031045,0.16369 -0.022578,0.110067 -0.053622,0.245534 z m 1.2728268,0.787402 v -2.060228 h 0.649113 q 0.2060228,0 0.355601,0.0762 0.1524004,0.0762 0.2370673,0.214489 0.084667,0.135467 0.084667,0.321734 0,0.206023 -0.1016003,0.361246 -0.1016003,0.1524 -0.2737563,0.217311 l 0.4035789,0.869247 H 6.2808507 L 5.9196052,31.646066 H 5.6627823 v 0.818446 z M 5.6627823,31.33562 h 0.2991564 q 0.1495782,0 0.2342451,-0.08184 0.084667,-0.08185 0.084667,-0.225779 0,-0.143934 -0.087489,-0.2286 -0.084667,-0.08467 -0.2314228,-0.08467 H 5.6627823 Z m 1.3800713,1.128892 V 32.1456 H 7.4577214 V 30.723196 H 7.0428536 v -0.318912 h 1.1853367 v 0.318912 H 7.8133224 V 32.1456 h 0.4148679 v 0.318912 z m 1.5381167,0 0.5192903,-2.060228 h 0.4543791 l 0.5221133,2.060228 H 9.7155068 L 9.6026176,31.964978 H 9.055105 L 8.9422158,32.464512 Z M 9.1200162,31.67711 H 9.5377063 L 9.4135282,31.123953 q -0.031045,-0.138289 -0.053622,-0.248356 -0.022578,-0.112889 -0.031045,-0.16369 -0.00847,0.0508 -0.031045,0.16369 -0.022578,0.110067 -0.053622,0.245534 z m 1.2587168,0.787402 v -2.060228 h 0.431801 l 0.572913,1.665116 q -0.0085,-0.09031 -0.01693,-0.211667 -0.0085,-0.124178 -0.01693,-0.251179 -0.0056,-0.127 -0.0056,-0.225778 v -0.976492 h 0.321734 v 2.060228 H 11.233869 L 10.6666,30.799397 q 0.0056,0.08184 0.01411,0.197556 0.0085,0.115711 0.01411,0.237067 0.0056,0.121356 0.0056,0.222956 v 1.007536 z m 2.159006,0 v -1.741316 h -0.539046 v -0.318912 h 1.433693 v 0.318912 H 12.89334 v 1.741316 z"
     id="text20"
     style="font-weight:bold;font-size:2.82223px;font-family:'JetBrains Mono';-inkscape-font-specification:'JetBrains Mono Bold';fill:#f9f9f9;stroke-width:0.264583"
     aria-label="VARIANT" />
</svg>
