<?xml version="1.0" encoding="UTF-8" standalone="no"?>
<!-- Created with Inkscape (http://www.inkscape.org/) -->

<svg
   width="15.24mm"
   height="128.5mm"
   viewBox="0 0 15.24 128.5"
   version="1.1"
   id="svg1"
   inkscape:version="1.3.2 (091e20e, 2023-11-25)"
   sodipodi:docname="Seed.svg"
   xmlns:inkscape="http://www.inkscape.org/namespaces/inkscape"
   xmlns:sodipodi="http://sodipodi.sourceforge.net/DTD/sodipodi-0.dtd"
   xmlns="http://www.w3.org/2000/svg"
   xmlns:svg="http://www.w3.org/2000/svg">
  <sodipodi:namedview
     id="namedview1"
     pagecolor="#ffffff"
     bordercolor="#cccccc"
     borderopacity="1"
     inkscape:showpageshadow="0"
     inkscape:pageopacity="1"
     inkscape:pagecheckerboard="0"
     inkscape:deskcolor="#d1d1d1"
     inkscape:document-units="mm"
     inkscape:zoom="1.4483351"
     inkscape:cx="83.544203"
     inkscape:cy="291.36904"
     inkscape:window-width="2560"
     inkscape:window-height="1387"
     inkscape:window-x="0"
     inkscape:window-y="25"
     inkscape:window-maximized="1"
     inkscape:current-layer="svg1" />
  <defs
     id="defs1" />
  <rect
     style="fill:#1a1a1a;stroke-width:0.264583"
     id="rect1"
     width="15.24"
     height="128.5"
     x="0"
     y="0"
     ry="0"
     inkscape:label="BG" />
  <path
     d="m 4.1923994,100.11667 q -0.2003783,0 -0.3471343,-0.0734 -0.146756,-0.0762 -0.2286006,-0.211665 -0.079023,-0.13829 -0.079023,-0.324557 v -0.897469 q 0,-0.186267 0.079023,-0.321734 0.081845,-0.13829 0.2286006,-0.211667 0.146756,-0.0762 0.3471343,-0.0762 0.1975561,0 0.3443121,0.0762 0.146756,0.07338 0.2286006,0.211667 0.081845,0.135467 0.081845,0.321734 h -0.355601 q 0,-0.143934 -0.079022,-0.220134 -0.0762,-0.07902 -0.220134,-0.07902 -0.1439337,0 -0.2229562,0.07902 -0.079022,0.0762 -0.079022,0.220134 v 0.897469 q 0,0.143934 0.079022,0.222956 0.079023,0.0762 0.2229562,0.0762 0.1439337,0 0.220134,-0.0762 0.079022,-0.07902 0.079022,-0.222956 h 0.355601 q 0,0.186267 -0.081845,0.324557 -0.081845,0.135467 -0.2286006,0.211665 -0.146756,0.0734 -0.3443121,0.0734 z m 1.1655821,-0.0282 v -2.06023 h 0.3527788 v 1.741316 h 0.8748913 v 0.318914 z m 2.1985183,0.0282 q -0.2963342,0 -0.4713124,-0.169334 -0.1721561,-0.169334 -0.1721561,-0.46849 v -0.841025 q 0,-0.299156 0.1721561,-0.46849 0.1749782,-0.169334 0.4713124,-0.169334 0.2963342,0 0.4684902,0.169334 0.1749783,0.169334 0.1749783,0.465668 v 0.843847 q 0,0.299156 -0.1749783,0.46849 -0.172156,0.169334 -0.4684902,0.169334 z m 0,-0.310445 q 0.1439337,0 0.2173117,-0.0762 0.073378,-0.07902 0.073378,-0.222956 v -0.897469 q 0,-0.143934 -0.073378,-0.220134 -0.073378,-0.07902 -0.2173117,-0.07902 -0.1439337,0 -0.2173117,0.07902 -0.073378,0.0762 -0.073378,0.220134 v 0.897469 q 0,0.143934 0.073378,0.222956 0.073378,0.0762 0.2173117,0.0762 z m 1.7159167,0.310445 q -0.2003783,0 -0.3471343,-0.0734 -0.146756,-0.0762 -0.2286006,-0.211665 -0.079023,-0.13829 -0.079023,-0.324557 v -0.897469 q 0,-0.186267 0.079023,-0.321734 0.081845,-0.13829 0.2286006,-0.211667 0.146756,-0.0762 0.3471343,-0.0762 0.1975561,0 0.3443121,0.0762 0.1467559,0.07338 0.2286006,0.211667 0.081845,0.135467 0.081845,0.321734 h -0.355601 q 0,-0.143934 -0.079022,-0.220134 -0.0762,-0.07902 -0.220134,-0.07902 -0.1439337,0 -0.2229562,0.07902 -0.079022,0.0762 -0.079022,0.220134 v 0.897469 q 0,0.143934 0.079022,0.222956 0.079023,0.0762 0.2229562,0.0762 0.1439337,0 0.220134,-0.0762 0.079022,-0.07902 0.079022,-0.222956 h 0.355601 q 0,0.186267 -0.081845,0.324557 -0.081845,0.135467 -0.2286006,0.211665 -0.146756,0.0734 -0.3443121,0.0734 z m 1.0385815,-0.0282 v -2.06023 h 0.352779 v 0.841024 h 0.242712 l 0.39229,-0.841024 h 0.381001 l -0.462846,0.982136 0.485424,1.078094 h -0.39229 l -0.406401,-0.911583 h -0.23989 v 0.911583 z"
     id="text1"
     style="display:inline;font-weight:bold;font-size:2.82223px;font-family:'JetBrains Mono';-inkscape-font-specification:'JetBrains Mono Bold';fill:#f9f9f9;stroke-width:0.264583"
     aria-label="CLOCK"
     inkscape:label="CLOCK_TEXT" />
  <path
     style="display:inline;font-weight:bold;font-size:2.82222px;font-family:'JetBrains Mono';-inkscape-font-specification:'JetBrains Mono Bold';fill:#e6e6e6;stroke-width:0.264583"
     d="m 3.5602338,118.08856 v -2.06022 h 0.6491106 q 0.2060221,0 0.3555998,0.0762 0.1523998,0.0762 0.2370664,0.21449 0.084667,0.13547 0.084667,0.32173 0,0.20602 -0.1016,0.36125 -0.1015999,0.1524 -0.2737553,0.21731 l 0.4035775,0.86924 H 4.5282553 l -0.3612442,-0.81844 h -0.256822 v 0.81844 z m 0.3499553,-1.12889 h 0.2991553 q 0.1495777,0 0.2342443,-0.0818 0.084667,-0.0819 0.084667,-0.22578 0,-0.14393 -0.087489,-0.2286 -0.084667,-0.0847 -0.2314221,-0.0847 H 3.9101891 Z m 1.3744223,1.12889 v -2.06022 h 1.2361324 v 0.31044 H 5.6317445 v 0.53623 h 0.7902216 v 0.29915 H 5.6317445 v 0.60396 h 0.8889993 v 0.31044 z m 2.3001104,0.0282 q -0.2088442,0 -0.3668886,-0.0734 -0.1552221,-0.0734 -0.2427109,-0.20885 -0.084667,-0.13829 -0.084667,-0.32738 h 0.3471331 q 0,0.13829 0.093133,0.22014 0.095956,0.0818 0.2539998,0.0818 0.1523999,0 0.2398888,-0.079 0.090311,-0.0819 0.090311,-0.21731 0,-0.1016 -0.059267,-0.1778 -0.056444,-0.079 -0.1636888,-0.10725 l -0.2765776,-0.0706 q -0.2229553,-0.0564 -0.3527775,-0.21167 -0.1298221,-0.15522 -0.1298221,-0.36971 0,-0.26247 0.1721554,-0.41769 Q 7.2770989,116 7.5649653,116 q 0.1947332,0 0.3386664,0.0705 0.1467555,0.0706 0.2257776,0.20038 0.079022,0.127 0.079022,0.29916 H 7.8641216 q 0,-0.11854 -0.081844,-0.19191 -0.081844,-0.0734 -0.217311,-0.0734 -0.1326443,0 -0.2116665,0.0734 -0.0762,0.0705 -0.0762,0.18626 0,0.096 0.053622,0.15805 0.056444,0.0621 0.1552221,0.0903 l 0.2850443,0.0705 q 0.2285998,0.0564 0.3584219,0.22578 0.1326444,0.16933 0.1326444,0.40358 0,0.18344 -0.084667,0.31891 -0.081844,0.13547 -0.2342443,0.21167 -0.1523999,0.0734 -0.358422,0.0734 z m 1.0865559,-0.0282 v -2.06022 h 1.2361324 v 0.31044 H 9.0184107 v 0.53623 h 0.7902217 v 0.29915 H 9.0184107 v 0.60396 h 0.8889994 v 0.31044 z m 2.1138443,0 v -1.74131 h -0.539044 v -0.31891 h 1.433688 v 0.31891 h -0.539044 v 1.74131 z"
     id="text16"
     inkscape:label="RESET_TEXT"
     aria-label="RESET" />
  <g
     inkscape:groupmode="layer"
     id="layer2"
     inkscape:label="components"
     transform="translate(0,-2)"
     style="display:none">
    <circle
       style="fill:#ff0000;stroke-width:0.266141"
       id="path1"
       cx="7.6199999"
       cy="15.5"
       inkscape:label="FIRST"
       r="3.5" />
    <circle
       style="fill:#ff0000;stroke-width:0.266141"
       id="circle7"
       cx="7.6199999"
       cy="26.5"
       inkscape:label="SECOND"
       r="3.5" />
    <circle
       style="fill:#ff0000;stroke-width:0.266141"
       id="circle8"
       cx="7.6199999"
       cy="37.5"
       inkscape:label="THIRD"
       r="3.5" />
    <circle
       style="fill:#ff0000;stroke-width:0.266141"
       id="circle9"
       cx="7.6199999"
       cy="48.5"
       inkscape:label="FOURTH"
       r="3.5" />
    <circle
       style="fill:#ff0000;stroke-width:0.266141"
       id="circle10"
       cx="7.6199999"
       cy="59.5"
       inkscape:label="FIFTH"
       r="3.5" />
    <circle
       style="fill:#ff0000;stroke-width:0.266141"
       id="circle11"
       cx="7.6199999"
       cy="70.5"
       inkscape:label="SIXTH"
       r="3.5" />
    <circle
       style="fill:#00ff00;stroke-width:0.266141"
       id="circle15"
       cx="7.6199999"
       cy="110.5"
       inkscape:label="RESET"
       r="3.5" />
    <circle
       style="fill:#00ff00;stroke-width:0.266141"
       id="circle1"
       cx="7.6199999"
       cy="92.5"
       inkscape:label="CLOCK"
       r="3.5" />
    <circle
       style="fill:#ff0000;stroke-width:0.266141"
       id="circle2"
       cx="7.6199999"
       cy="81.5"
       inkscape:label="RUN"
       r="3.5" />
  </g>
</svg>
