<?xml version="1.0" encoding="UTF-8" standalone="no"?>
<!-- Created with Inkscape (http://www.inkscape.org/) -->

<svg
   width="15.24mm"
   height="128.5mm"
   viewBox="0 0 15.24 128.5"
   version="1.1"
   id="svg1"
   inkscape:version="1.3.2 (091e20e, 2023-11-25)"
   sodipodi:docname="Seed.svg"
   xmlns:inkscape="http://www.inkscape.org/namespaces/inkscape"
   xmlns:sodipodi="http://sodipodi.sourceforge.net/DTD/sodipodi-0.dtd"
   xmlns="http://www.w3.org/2000/svg"
   xmlns:svg="http://www.w3.org/2000/svg">
  <sodipodi:namedview
     id="namedview1"
     pagecolor="#ffffff"
     bordercolor="#cccccc"
     borderopacity="1"
     inkscape:showpageshadow="0"
     inkscape:pageopacity="1"
     inkscape:pagecheckerboard="0"
     inkscape:deskcolor="#d1d1d1"
     inkscape:document-units="mm"
     inkscape:zoom="3.5738935"
     inkscape:cx="37.913833"
     inkscape:cy="387.53253"
     inkscape:window-width="2560"
     inkscape:window-height="1387"
     inkscape:window-x="0"
     inkscape:window-y="25"
     inkscape:window-maximized="0"
     inkscape:current-layer="svg1" />
  <defs
     id="defs1" />
  <rect
     style="fill:#1a1a1a;stroke-width:0.264583"
     id="rect1"
     width="15.24"
     height="128.5"
     x="0"
     y="0"
     ry="0"
     inkscape:label="BG" />
  <g
     inkscape:groupmode="layer"
     id="layer2"
     inkscape:label="components">
    <circle
       style="fill:#ff0000;stroke-width:0.266141"
       id="path1"
       cx="7.6199999"
       cy="11.5"
       inkscape:label="FIRST"
       r="3.5" />
    <circle
       style="fill:#ff0000;stroke-width:0.266141"
       id="circle7"
       cx="7.6199999"
       cy="22.5"
       inkscape:label="SECOND"
       r="3.5" />
    <circle
       style="fill:#ff0000;stroke-width:0.266141"
       id="circle8"
       cx="7.6199999"
       cy="33.5"
       inkscape:label="THIRD"
       r="3.5" />
    <circle
       style="fill:#ff0000;stroke-width:0.266141"
       id="circle9"
       cx="7.6199999"
       cy="44.5"
       inkscape:label="FOURTH"
       r="3.5" />
    <circle
       style="fill:#ff0000;stroke-width:0.266141"
       id="circle10"
       cx="7.6199999"
       cy="55.5"
       inkscape:label="FIFTH"
       r="3.5" />
    <circle
       style="fill:#ff0000;stroke-width:0.266141"
       id="circle11"
       cx="7.6199999"
       cy="66.5"
       inkscape:label="SIXTH"
       r="3.5" />
    <circle
       style="fill:#ff0000;stroke-width:0.266141"
       id="circle12"
       cx="7.6199999"
       cy="77.5"
       inkscape:label="SEVENTH"
       r="3.5" />
    <circle
       style="fill:#ff0000;stroke-width:0.266141"
       id="circle13"
       cx="7.6199999"
       cy="88.5"
       inkscape:label="EIGHTH"
       r="3.5" />
    <circle
       style="fill:#00ff00;stroke-width:0.266141"
       id="circle14"
       cx="7.6199999"
       cy="101.5"
       inkscape:label="CLOCK_IN"
       r="3.5" />
    <circle
       style="fill:#00ff00;stroke-width:0.266141"
       id="circle15"
       cx="7.6199999"
       cy="114.5"
       inkscape:label="RESET_IN"
       r="3.5" />
  </g>
  <path
     style="font-weight:bold;font-size:2.82222px;font-family:'JetBrains Mono';-inkscape-font-specification:'JetBrains Mono Bold';fill:#e6e6e6;stroke-width:0.264583"
     d="m 3.5602339,122.08856 v -2.06022 h 0.6491106 q 0.2060221,0 0.3555998,0.0762 0.1523998,0.0762 0.2370664,0.21449 0.084667,0.13547 0.084667,0.32173 0,0.20602 -0.1016,0.36125 -0.1015999,0.1524 -0.2737553,0.21731 l 0.4035775,0.86924 H 4.5282554 l -0.3612442,-0.81844 h -0.256822 v 0.81844 z m 0.3499553,-1.12889 h 0.2991553 q 0.1495777,0 0.2342443,-0.0818 0.084667,-0.0819 0.084667,-0.22578 0,-0.14393 -0.087489,-0.2286 -0.084667,-0.0847 -0.2314221,-0.0847 H 3.9101892 Z m 1.3744223,1.12889 v -2.06022 h 1.2361324 v 0.31044 H 5.6317446 v 0.53623 h 0.7902216 v 0.29915 H 5.6317446 v 0.60396 h 0.8889993 v 0.31044 z m 2.3001104,0.0282 q -0.2088442,0 -0.3668886,-0.0734 -0.1552221,-0.0734 -0.2427109,-0.20885 -0.084667,-0.13829 -0.084667,-0.32738 h 0.3471331 q 0,0.13829 0.093133,0.22014 0.095956,0.0818 0.2539998,0.0818 0.1523999,0 0.2398888,-0.079 0.090311,-0.0819 0.090311,-0.21731 0,-0.1016 -0.059267,-0.1778 -0.056444,-0.079 -0.1636888,-0.10725 l -0.2765776,-0.0706 q -0.2229553,-0.0564 -0.3527775,-0.21167 -0.1298221,-0.15522 -0.1298221,-0.36971 0,-0.26247 0.1721554,-0.41769 Q 7.277099,120 7.5649654,120 q 0.1947332,0 0.3386664,0.0705 0.1467555,0.0706 0.2257776,0.20038 0.079022,0.127 0.079022,0.29916 H 7.8641217 q 0,-0.11854 -0.081844,-0.19191 -0.081844,-0.0734 -0.217311,-0.0734 -0.1326443,0 -0.2116665,0.0734 -0.0762,0.0705 -0.0762,0.18626 0,0.096 0.053622,0.15805 0.056444,0.0621 0.1552221,0.0903 l 0.2850443,0.0705 q 0.2285998,0.0564 0.3584219,0.22578 0.1326444,0.16933 0.1326444,0.40358 0,0.18344 -0.084667,0.31891 -0.081844,0.13547 -0.2342443,0.21167 -0.1523999,0.0734 -0.358422,0.0734 z m 1.0865559,-0.0282 v -2.06022 h 1.2361324 v 0.31044 H 9.0184108 v 0.53623 h 0.7902217 v 0.29915 H 9.0184108 v 0.60396 h 0.8889994 v 0.31044 z m 2.1138442,0 v -1.74131 h -0.539044 v -0.31891 h 1.433688 v 0.31891 h -0.539044 v 1.74131 z"
     id="text16"
     inkscape:label="RESET_TEXT"
     aria-label="RESET" />
  <path
     style="font-weight:bold;font-size:2.82222px;font-family:'JetBrains Mono';-inkscape-font-specification:'JetBrains Mono Bold';fill:#e6e6e6;stroke-width:0.264583"
     d="m 4.2559113,109.11669 q -0.2003776,0 -0.347133,-0.0734 -0.1467555,-0.0762 -0.2285998,-0.21167 -0.079022,-0.13829 -0.079022,-0.32456 v -0.89746 q 0,-0.18627 0.079022,-0.32174 0.081844,-0.13828 0.2285998,-0.21166 Q 4.0555337,107 4.2559113,107 q 0.1975555,0 0.3443109,0.0762 0.1467554,0.0734 0.2285998,0.21166 0.081844,0.13547 0.081844,0.32174 H 4.5550667 q 0,-0.14394 -0.079022,-0.22014 -0.0762,-0.079 -0.2201332,-0.079 -0.1439332,0 -0.2229553,0.079 -0.079022,0.0762 -0.079022,0.22014 v 0.89746 q 0,0.14394 0.079022,0.22296 0.079022,0.0762 0.2229553,0.0762 0.1439333,0 0.2201332,-0.0762 0.079022,-0.079 0.079022,-0.22296 h 0.3555997 q 0,0.18627 -0.081844,0.32456 -0.081844,0.13547 -0.2285998,0.21167 -0.1467554,0.0734 -0.3443113,0.0734 z m 1.165578,-0.0282 v -2.06022 h 0.3527776 v 1.74131 h 0.8748882 v 0.31891 z m 2.1985106,0.0282 q -0.2963331,0 -0.4713108,-0.16933 -0.1721554,-0.16933 -0.1721554,-0.46849 v -0.84102 q 0,-0.29916 0.1721554,-0.46849 0.1749777,-0.16933 0.4713108,-0.16933 0.2963331,0 0.4684885,0.16933 0.1749777,0.16933 0.1749777,0.46567 v 0.84384 q 0,0.29916 -0.1749777,0.46849 -0.1721554,0.16933 -0.4684885,0.16933 z m 0,-0.31044 q 0.1439332,0 0.2173109,-0.0762 0.073378,-0.079 0.073378,-0.22296 v -0.89746 q 0,-0.14394 -0.073378,-0.22014 -0.073378,-0.079 -0.2173109,-0.079 -0.1439332,0 -0.217311,0.079 -0.073378,0.0762 -0.073378,0.22014 v 0.89746 q 0,0.14394 0.073378,0.22296 0.073378,0.0762 0.217311,0.0762 z m 1.7159109,0.31044 q -0.2003776,0 -0.3471331,-0.0734 -0.1467554,-0.0762 -0.2285998,-0.21167 -0.079022,-0.13829 -0.079022,-0.32456 v -0.89746 q 0,-0.18627 0.079022,-0.32174 0.081844,-0.13828 0.2285998,-0.21166 Q 9.1355332,107 9.3359108,107 q 0.1975554,0 0.3443108,0.0762 0.1467555,0.0734 0.2285999,0.21166 0.081844,0.13547 0.081844,0.32174 H 9.6350661 q 0,-0.14394 -0.079022,-0.22014 -0.0762,-0.079 -0.2201332,-0.079 -0.1439332,0 -0.2229554,0.079 -0.079022,0.0762 -0.079022,0.22014 v 0.89746 q 0,0.14394 0.079022,0.22296 0.079022,0.0762 0.2229554,0.0762 0.1439332,0 0.2201332,-0.0762 0.079022,-0.079 0.079022,-0.22296 h 0.3555998 q 0,0.18627 -0.081844,0.32456 -0.081844,0.13547 -0.2285999,0.21167 -0.1467554,0.0734 -0.3443112,0.0734 z m 1.0385782,-0.0282 v -2.06022 h 0.352777 v 0.84102 h 0.242711 l 0.392289,-0.84102 h 0.381 l -0.462844,0.98213 0.485421,1.07809 h -0.392288 l -0.4064,-0.91158 h -0.239889 v 0.91158 z"
     id="text15"
     aria-label="CLOCK"
     inkscape:label="CLOCK_TEXT" />
</svg>
